<?xml version="1.0" encoding="utf-8"?>
<!-- Generator: Adobe Illustrator 21.0.2, SVG Export Plug-In . SVG Version: 6.00 Build 0)  -->
<svg version="1.1" id="Layer_1" xmlns="http://www.w3.org/2000/svg" xmlns:xlink="http://www.w3.org/1999/xlink" x="0px" y="0px"
	 viewBox="0 0 94 80" style="enable-background:new 0 0 94 80;" xml:space="preserve">
<style type="text/css">
	.st0{fill:none;stroke:#5EB4E5;stroke-width:0.8504;stroke-linecap:round;stroke-linejoin:round;stroke-miterlimit:10;}
	.st1{fill:none;stroke:#1D1D1B;stroke-width:0.8504;stroke-linecap:round;stroke-linejoin:round;stroke-miterlimit:10;}
	.st2{fill:none;stroke:#1D1D1B;stroke-width:0.8504;stroke-linecap:round;stroke-linejoin:round;}
	.st3{fill:none;stroke:#1D1D1B;stroke-width:0.8504;stroke-linecap:round;stroke-linejoin:round;stroke-dasharray:4.0069,5.3426;}
	.st4{fill:#1D1D1B;}
	.st5{fill:none;stroke:#1D1D1B;stroke-width:0.7087;stroke-linecap:round;stroke-linejoin:round;stroke-miterlimit:10;}
	.st6{fill:none;stroke:#1D1D1B;stroke-width:0.7087;stroke-miterlimit:10;}
	.st7{fill:none;stroke:#F6E71D;stroke-width:0.8504;stroke-miterlimit:10;}
	.st8{fill:none;stroke:#5EB4E5;stroke-linecap:round;stroke-linejoin:round;stroke-miterlimit:10;}
	.st9{fill:none;stroke:#57F5E7;stroke-linecap:round;stroke-linejoin:round;stroke-miterlimit:10;}
	.st10{fill:none;stroke:#5EB4E5;stroke-linecap:round;stroke-linejoin:round;}
	.st11{fill:none;stroke:#5EB4E5;stroke-linecap:round;stroke-linejoin:round;stroke-dasharray:4.342,5.7894;}
	.st12{fill:#5EB4E5;}
	.st13{fill:none;stroke:#66ECEE;stroke-linecap:round;stroke-linejoin:round;stroke-miterlimit:10;}
	.st14{fill:none;stroke:#7CDFF9;stroke-linecap:round;stroke-linejoin:round;stroke-miterlimit:10;}
	.st15{fill:none;stroke:#5EB4E5;stroke-miterlimit:10;}
	.st16{fill:none;stroke:#6FE6F3;stroke-miterlimit:10;}
	.st17{fill:none;stroke:#66ECEE;stroke-miterlimit:10;}
	.st18{fill:none;stroke:#86FFEE;stroke-miterlimit:10;}
	.st19{fill:none;stroke:#76E2F7;stroke-miterlimit:10;}
	.st20{fill:none;stroke:#1D1D1B;stroke-width:0.8504;stroke-linecap:round;stroke-linejoin:round;stroke-dasharray:4.3988,5.865;}
	.st21{fill:none;stroke:#1D1D1B;stroke-width:0.8504;stroke-miterlimit:10;}
	.st22{fill:none;stroke:#87FFEB;stroke-width:0.8504;stroke-linecap:round;stroke-linejoin:round;stroke-miterlimit:10;}
	.st23{fill:none;stroke:#87FFEB;stroke-width:0.8504;stroke-linecap:round;stroke-linejoin:round;}
	.st24{fill:none;stroke:#87FFEB;stroke-width:0.8504;stroke-linecap:round;stroke-linejoin:round;stroke-dasharray:4.4104,5.8806;}
	.st25{fill:#87FFEB;}
	.st26{fill:#7ADEF8;}
	.st27{fill:#76E2F6;}
	.st28{fill:#6FE6F3;}
</style>
<g>
	<path class="st13" d="M28.1,28.2L10.3,42.6c-1.9,1.6-5.2,1.5-7.2-0.1l0,0c-2-1.6-2.1-4.3-0.1-5.8l18.1-14.6"/>
	<path class="st13" d="M33.1,12.3l10-8.1c1.9-1.6,5.2-1.5,7.2,0.1l0,0c2,1.6,2.1,4.3,0.1,5.8L40.7,18"/>
	<path class="st13" d="M36.1,54.7l-5.5,4.5c-1.9,1.6-5.2,1.5-7.2-0.1l0,0c-2-1.6-2.1-4.3-0.1-5.8l5.5-4.5"/>
	<path class="st13" d="M40.7,39.1l22.7-18.3c1.9-1.6,5.2-1.5,7.2,0.1l0,0c2,1.6,2.1,4.3,0.1,5.8L48.9,44.4"/>
	<path class="st13" d="M38.4,26.4c3.9-3.2,3.8-8.4-0.2-11.8s-10.5-3.4-14.5-0.3s-3.8,8.4,0.2,11.8S34.4,29.6,38.4,26.4z"/>
	<path class="st13" d="M45.6,52.6c3.8-3,3.7-8.1-0.2-11.3c-3.9-3.2-10.1-3.3-13.9-0.2c-3.8,3-3.7,8.1,0.2,11.3
		C35.6,55.5,41.8,55.7,45.6,52.6z"/>
	<path class="st13" d="M85.8,53.6c3.9-3.2,3.8-8.4-0.2-11.8c-4.1-3.3-10.5-3.4-14.5-0.3c-3.9,3.2-3.8,8.4,0.2,11.8
		C75.4,56.6,81.8,56.8,85.8,53.6z"/>
	<g>
		<path class="st13" d="M88.6,45.3l0.4-0.3l1.9-1.6c1.9-1.6,1.9-4.2-0.1-5.8c-2-1.6-5.2-1.7-7.2-0.1l-2.7,2.2l0.4-0.3"/>
		<path class="st13" d="M68.3,49.9L43.6,69.8c-1.9,1.6-1.9,4.2,0.1,5.8c2,1.6,5.2,1.7,7.2,0.1l24.7-19.9"/>
	</g>
</g>
</svg>
