<?xml version="1.0" encoding="utf-8"?>
<!-- Generator: Adobe Illustrator 21.0.2, SVG Export Plug-In . SVG Version: 6.00 Build 0)  -->
<svg version="1.1" id="Layer_1" xmlns="http://www.w3.org/2000/svg" xmlns:xlink="http://www.w3.org/1999/xlink" x="0px" y="0px"
	 viewBox="0 0 94 80" style="enable-background:new 0 0 94 80;" xml:space="preserve">
<style type="text/css">
	.st0{fill:none;stroke:#5EB4E5;stroke-width:0.8504;stroke-linecap:round;stroke-linejoin:round;stroke-miterlimit:10;}
	.st1{fill:none;stroke:#1D1D1B;stroke-width:0.8504;stroke-linecap:round;stroke-linejoin:round;stroke-miterlimit:10;}
	.st2{fill:none;stroke:#1D1D1B;stroke-width:0.8504;stroke-linecap:round;stroke-linejoin:round;}
	.st3{fill:none;stroke:#1D1D1B;stroke-width:0.8504;stroke-linecap:round;stroke-linejoin:round;stroke-dasharray:4.0069,5.3426;}
	.st4{fill:#1D1D1B;}
	.st5{fill:none;stroke:#1D1D1B;stroke-width:0.7087;stroke-linecap:round;stroke-linejoin:round;stroke-miterlimit:10;}
	.st6{fill:none;stroke:#1D1D1B;stroke-width:0.7087;stroke-miterlimit:10;}
	.st7{fill:none;stroke:#F6E71D;stroke-width:0.8504;stroke-miterlimit:10;}
	.st8{fill:none;stroke:#5EB4E5;stroke-linecap:round;stroke-linejoin:round;stroke-miterlimit:10;}
	.st9{fill:none;stroke:#57F5E7;stroke-linecap:round;stroke-linejoin:round;stroke-miterlimit:10;}
	.st10{fill:none;stroke:#5EB4E5;stroke-linecap:round;stroke-linejoin:round;}
	.st11{fill:none;stroke:#5EB4E5;stroke-linecap:round;stroke-linejoin:round;stroke-dasharray:4.342,5.7894;}
	.st12{fill:#5EB4E5;}
	.st13{fill:none;stroke:#66ECEE;stroke-linecap:round;stroke-linejoin:round;stroke-miterlimit:10;}
	.st14{fill:none;stroke:#7CDFF9;stroke-linecap:round;stroke-linejoin:round;stroke-miterlimit:10;}
	.st15{fill:none;stroke:#5EB4E5;stroke-miterlimit:10;}
	.st16{fill:none;stroke:#6FE6F3;stroke-miterlimit:10;}
	.st17{fill:none;stroke:#66ECEE;stroke-miterlimit:10;}
	.st18{fill:none;stroke:#86FFEE;stroke-miterlimit:10;}
	.st19{fill:none;stroke:#76E2F7;stroke-miterlimit:10;}
	.st20{fill:none;stroke:#1D1D1B;stroke-width:0.8504;stroke-linecap:round;stroke-linejoin:round;stroke-dasharray:4.3988,5.865;}
	.st21{fill:none;stroke:#1D1D1B;stroke-width:0.8504;stroke-miterlimit:10;}
	.st22{fill:none;stroke:#87FFEB;stroke-width:0.8504;stroke-linecap:round;stroke-linejoin:round;stroke-miterlimit:10;}
	.st23{fill:none;stroke:#87FFEB;stroke-width:0.8504;stroke-linecap:round;stroke-linejoin:round;}
	.st24{fill:none;stroke:#87FFEB;stroke-width:0.8504;stroke-linecap:round;stroke-linejoin:round;stroke-dasharray:4.4104,5.8806;}
	.st25{fill:#87FFEB;}
	.st26{fill:#7ADEF8;}
	.st27{fill:#76E2F6;}
	.st28{fill:#6FE6F3;}
</style>
<g>
	<path class="st22" d="M80.9,54.1c-7.1,10.4-21.8,16.6-37,14.4c-18.8-2.7-31.6-17-29.1-32.3"/>
	<g>
		<g>
			<path class="st23" d="M18.3,26.8c0.4-0.6,0.8-1.2,1.2-1.8"/>
			<path class="st24" d="M23.5,20.7c7.9-7.2,20-11,32.5-9.2c17.2,2.4,29.4,14.6,29.4,28.4"/>
			<path class="st23" d="M85.2,42.8c-0.1,0.7-0.2,1.4-0.4,2.1"/>
		</g>
	</g>
	<g>
		<line class="st22" x1="19.9" y1="41.1" x2="14.8" y2="36.1"/>
		<line class="st22" x1="8.6" y1="40.2" x2="14.8" y2="36.1"/>
	</g>
	<g>
		<path class="st25" d="M33.7,36.8c3.3-2.7,7.9-2.6,10.8-0.2c3.9,3.2,2.2,6.3,0.1,10.4c-1.4,2.5-2.8,5-0.3,7.1l1.3,1L56,46.5
			c0.3-0.2,0.4-0.2,0.6,0l0.5,0.4c0.3,0.2,0.3,0.3,0,0.5l-11.3,9.2c-0.2,0.2-0.4,0.2-0.7,0l-1.8-1.5c-3.3-2.7-1.8-5.7-0.1-8.8
			c1.7-3.1,3.5-6,0.2-8.8c-2.3-1.9-6-2-8.6,0.1c-2.7,2.2-3.2,4.4-1.9,7.1c0.1,0.2,0.1,0.4-0.2,0.5L32,45.5c-0.3,0.1-0.4,0.1-0.6-0.2
			C29.9,42.3,30.4,39.5,33.7,36.8z"/>
		<path class="st25" d="M66.7,29.9l0.4,0.3c0.3,0.2,0.3,0.3,0,0.5l-2.6,2.1l4.9,4c0.3,0.2,0.3,0.3,0,0.5l-0.5,0.4
			c-0.3,0.2-0.4,0.2-0.7,0l-4.9-4l-9.3,7.6c-0.3,0.2-0.4,0.2-0.7,0l-0.3-0.3c-0.2-0.2-0.3-0.2-0.3-0.4l-2.3-17.1
			c0-0.3,0-0.4,0.2-0.6l0.5-0.4c0.3-0.2,0.4-0.2,0.7,0L63.4,32l2.6-2.1C66.3,29.7,66.5,29.7,66.7,29.9z M54.1,39.6l8.2-6.7
			l-10.2-8.3L54.1,39.6z"/>
	</g>
</g>
</svg>
