<?xml version="1.0" encoding="utf-8"?>
<!-- Generator: Adobe Illustrator 21.0.2, SVG Export Plug-In . SVG Version: 6.00 Build 0)  -->
<svg version="1.1" id="Layer_1" xmlns="http://www.w3.org/2000/svg" xmlns:xlink="http://www.w3.org/1999/xlink" x="0px" y="0px"
	 viewBox="0 0 94 80" style="enable-background:new 0 0 94 80;" xml:space="preserve">
<style type="text/css">
	.st0{fill:none;stroke:#5EB4E5;stroke-width:0.8504;stroke-linecap:round;stroke-linejoin:round;stroke-miterlimit:10;}
	.st1{fill:none;stroke:#1D1D1B;stroke-width:0.8504;stroke-linecap:round;stroke-linejoin:round;stroke-miterlimit:10;}
	.st2{fill:none;stroke:#1D1D1B;stroke-width:0.8504;stroke-linecap:round;stroke-linejoin:round;}
	.st3{fill:none;stroke:#1D1D1B;stroke-width:0.8504;stroke-linecap:round;stroke-linejoin:round;stroke-dasharray:4.0069,5.3426;}
	.st4{fill:#1D1D1B;}
	.st5{fill:none;stroke:#1D1D1B;stroke-width:0.7087;stroke-linecap:round;stroke-linejoin:round;stroke-miterlimit:10;}
	.st6{fill:none;stroke:#1D1D1B;stroke-width:0.7087;stroke-miterlimit:10;}
	.st7{fill:none;stroke:#F6E71D;stroke-width:0.8504;stroke-miterlimit:10;}
	.st8{fill:none;stroke:#5EB4E5;stroke-linecap:round;stroke-linejoin:round;stroke-miterlimit:10;}
	.st9{fill:none;stroke:#57F5E7;stroke-linecap:round;stroke-linejoin:round;stroke-miterlimit:10;}
	.st10{fill:none;stroke:#5EB4E5;stroke-linecap:round;stroke-linejoin:round;}
	.st11{fill:none;stroke:#5EB4E5;stroke-linecap:round;stroke-linejoin:round;stroke-dasharray:4.342,5.7894;}
	.st12{fill:#5EB4E5;}
	.st13{fill:none;stroke:#66ECEE;stroke-linecap:round;stroke-linejoin:round;stroke-miterlimit:10;}
	.st14{fill:none;stroke:#7CDFF9;stroke-linecap:round;stroke-linejoin:round;stroke-miterlimit:10;}
	.st15{fill:none;stroke:#5EB4E5;stroke-miterlimit:10;}
	.st16{fill:none;stroke:#6FE6F3;stroke-miterlimit:10;}
	.st17{fill:none;stroke:#66ECEE;stroke-miterlimit:10;}
	.st18{fill:none;stroke:#86FFEE;stroke-miterlimit:10;}
	.st19{fill:none;stroke:#76E2F7;stroke-miterlimit:10;}
	.st20{fill:none;stroke:#1D1D1B;stroke-width:0.8504;stroke-linecap:round;stroke-linejoin:round;stroke-dasharray:4.3988,5.865;}
	.st21{fill:none;stroke:#1D1D1B;stroke-width:0.8504;stroke-miterlimit:10;}
	.st22{fill:none;stroke:#87FFEB;stroke-width:0.8504;stroke-linecap:round;stroke-linejoin:round;stroke-miterlimit:10;}
	.st23{fill:none;stroke:#87FFEB;stroke-width:0.8504;stroke-linecap:round;stroke-linejoin:round;}
	.st24{fill:none;stroke:#87FFEB;stroke-width:0.8504;stroke-linecap:round;stroke-linejoin:round;stroke-dasharray:4.4104,5.8806;}
	.st25{fill:#87FFEB;}
	.st26{fill:#7ADEF8;}
	.st27{fill:#76E2F6;}
	.st28{fill:#6FE6F3;}
</style>
<g>
	<path class="st18" d="M90.9,38c1.1,0.9,1.2,2.4,0,3.4L48.7,75.7c-1.1,0.9-3,0.9-4.2,0l-8.7-7.1c-1.1-0.9-1.1-2.4,0-3.4l42.2-34.3
		c1.1-0.9,3-0.9,4.2,0L90.9,38z"/>
	<path class="st18" d="M50.9,63.3c-1.4-1.1-3.7-1.1-5.1,0c-1.4,1.1-1.4,3,0,4.1s3.7,1.1,5.1,0C52.3,66.3,52.3,64.5,50.9,63.3z"/>
	<path class="st18" d="M74.6,24.7c1.1,0.9,1.2,2.4,0,3.4L32.4,62.4c-1.1,0.9-3,0.9-4.2,0l-8.7-7.1c-1.1-0.9-1.1-2.4,0-3.4l42.2-34.3
		c1.1-0.9,3-0.9,4.2,0L74.6,24.7z"/>
	<path class="st18" d="M34.5,50.1c-1.4-1.1-3.7-1.1-5.1,0c-1.4,1.1-1.4,3,0,4.1c1.4,1.1,3.7,1.1,5.1,0C36,53.1,36,51.2,34.5,50.1z"
		/>
	<path class="st18" d="M58.2,11.4c1.1,0.9,1.2,2.4,0,3.4L15.9,49.1c-1.1,0.9-3,0.9-4.2,0L3.1,42c-1.1-0.9-1.1-2.4,0-3.4L45.3,4.3
		c1.1-0.9,3-0.9,4.2,0L58.2,11.4z"/>
	<path class="st18" d="M18.1,36.7c-1.4-1.1-3.7-1.1-5.1,0c-1.4,1.1-1.4,3,0,4.1c1.4,1.1,3.7,1.1,5.1,0
		C19.5,39.7,19.5,37.8,18.1,36.7z"/>
</g>
</svg>
