<?xml version="1.0" encoding="utf-8"?>
<!-- Generator: Adobe Illustrator 21.0.2, SVG Export Plug-In . SVG Version: 6.00 Build 0)  -->
<svg version="1.1" id="Layer_1" xmlns="http://www.w3.org/2000/svg" xmlns:xlink="http://www.w3.org/1999/xlink" x="0px" y="0px"
	 viewBox="0 0 94 80" style="enable-background:new 0 0 94 80;" xml:space="preserve">
<style type="text/css">
	.st0{fill:none;stroke:#5EB4E5;stroke-width:0.8504;stroke-linecap:round;stroke-linejoin:round;stroke-miterlimit:10;}
	.st1{fill:none;stroke:#1D1D1B;stroke-width:0.8504;stroke-linecap:round;stroke-linejoin:round;stroke-miterlimit:10;}
	.st2{fill:none;stroke:#1D1D1B;stroke-width:0.8504;stroke-linecap:round;stroke-linejoin:round;}
	.st3{fill:none;stroke:#1D1D1B;stroke-width:0.8504;stroke-linecap:round;stroke-linejoin:round;stroke-dasharray:4.0069,5.3426;}
	.st4{fill:#1D1D1B;}
	.st5{fill:none;stroke:#1D1D1B;stroke-width:0.7087;stroke-linecap:round;stroke-linejoin:round;stroke-miterlimit:10;}
	.st6{fill:none;stroke:#1D1D1B;stroke-width:0.7087;stroke-miterlimit:10;}
	.st7{fill:none;stroke:#F6E71D;stroke-width:0.8504;stroke-miterlimit:10;}
	.st8{fill:none;stroke:#5EB4E5;stroke-linecap:round;stroke-linejoin:round;stroke-miterlimit:10;}
	.st9{fill:none;stroke:#57F5E7;stroke-linecap:round;stroke-linejoin:round;stroke-miterlimit:10;}
	.st10{fill:none;stroke:#5EB4E5;stroke-linecap:round;stroke-linejoin:round;}
	.st11{fill:none;stroke:#5EB4E5;stroke-linecap:round;stroke-linejoin:round;stroke-dasharray:4.342,5.7894;}
	.st12{fill:#5EB4E5;}
	.st13{fill:none;stroke:#66ECEE;stroke-linecap:round;stroke-linejoin:round;stroke-miterlimit:10;}
	.st14{fill:none;stroke:#7CDFF9;stroke-linecap:round;stroke-linejoin:round;stroke-miterlimit:10;}
	.st15{fill:none;stroke:#5EB4E5;stroke-miterlimit:10;}
	.st16{fill:none;stroke:#6FE6F3;stroke-miterlimit:10;}
	.st17{fill:none;stroke:#66ECEE;stroke-miterlimit:10;}
	.st18{fill:none;stroke:#86FFEE;stroke-miterlimit:10;}
	.st19{fill:none;stroke:#76E2F7;stroke-miterlimit:10;}
	.st20{fill:none;stroke:#1D1D1B;stroke-width:0.8504;stroke-linecap:round;stroke-linejoin:round;stroke-dasharray:4.3988,5.865;}
	.st21{fill:none;stroke:#1D1D1B;stroke-width:0.8504;stroke-miterlimit:10;}
	.st22{fill:none;stroke:#87FFEB;stroke-width:0.8504;stroke-linecap:round;stroke-linejoin:round;stroke-miterlimit:10;}
	.st23{fill:none;stroke:#87FFEB;stroke-width:0.8504;stroke-linecap:round;stroke-linejoin:round;}
	.st24{fill:none;stroke:#87FFEB;stroke-width:0.8504;stroke-linecap:round;stroke-linejoin:round;stroke-dasharray:4.4104,5.8806;}
	.st25{fill:#87FFEB;}
	.st26{fill:#7ADEF8;}
	.st27{fill:#76E2F6;}
	.st28{fill:#6FE6F3;}
</style>
<g>
	<path class="st17" d="M30.4,49.6c-4.9-5.6-4.8-13.3,0.3-19.1c3.7-4.3,9.5-7,15.7-7.4c5.9-0.4,11.7,1.3,15.8,4.6
		c2.7,2.2,4.5,5,5.3,8.1c1.2,4.7,3.1,8.8,5.8,12.2c0.2,0.2,0.3,0.4,0.4,0.7c0.1,0.3,0.2,0.7,0.2,1c0,0.4-0.9,1.1-1,1.2l-11.6,9.5
		c-0.3,0.2-1.6,0.8-2.2,0.8l0,0c-0.5-0.1-1-0.2-1.4-0.5c-3.9-2.2-8.7-3.7-14.4-4.5C38,55.5,33.5,53.1,30.4,49.6z"/>
	<line class="st13" x1="19.9" y1="17.5" x2="28" y2="24.1"/>
	<line class="st13" x1="76.3" y1="16.7" x2="68.2" y2="23.3"/>
	<line class="st13" x1="27.2" y1="56.6" x2="19.1" y2="63.2"/>
	<line class="st13" x1="49.2" y1="7.9" x2="49.2" y2="17.2"/>
	<line class="st13" x1="8.2" y1="41.2" x2="19.6" y2="41.2"/>
	<path class="st13" d="M77,53.4l2.1,1.7c3.7,3,3.7,7.8,0,10.8c-3.7,3-9.6,3-13.3,0l-2.1-1.7L77,53.4z"/>
</g>
</svg>
