<?xml version="1.0" encoding="utf-8"?>
<!-- Generator: Adobe Illustrator 21.0.2, SVG Export Plug-In . SVG Version: 6.00 Build 0)  -->
<svg version="1.1" id="Layer_1" xmlns="http://www.w3.org/2000/svg" xmlns:xlink="http://www.w3.org/1999/xlink" x="0px" y="0px"
	 viewBox="0 0 94 80" style="enable-background:new 0 0 94 80;" xml:space="preserve">
<style type="text/css">
	.st0{fill:none;stroke:#5EB4E5;stroke-width:0.8504;stroke-linecap:round;stroke-linejoin:round;stroke-miterlimit:10;}
	.st1{fill:none;stroke:#1D1D1B;stroke-width:0.8504;stroke-linecap:round;stroke-linejoin:round;stroke-miterlimit:10;}
	.st2{fill:none;stroke:#1D1D1B;stroke-width:0.8504;stroke-linecap:round;stroke-linejoin:round;}
	.st3{fill:none;stroke:#1D1D1B;stroke-width:0.8504;stroke-linecap:round;stroke-linejoin:round;stroke-dasharray:4.0069,5.3426;}
	.st4{fill:#1D1D1B;}
	.st5{fill:none;stroke:#1D1D1B;stroke-width:0.7087;stroke-linecap:round;stroke-linejoin:round;stroke-miterlimit:10;}
	.st6{fill:none;stroke:#1D1D1B;stroke-width:0.7087;stroke-miterlimit:10;}
	.st7{fill:none;stroke:#F6E71D;stroke-width:0.8504;stroke-miterlimit:10;}
	.st8{fill:none;stroke:#5EB4E5;stroke-linecap:round;stroke-linejoin:round;stroke-miterlimit:10;}
	.st9{fill:none;stroke:#57F5E7;stroke-linecap:round;stroke-linejoin:round;stroke-miterlimit:10;}
	.st10{fill:none;stroke:#5EB4E5;stroke-linecap:round;stroke-linejoin:round;}
	.st11{fill:none;stroke:#5EB4E5;stroke-linecap:round;stroke-linejoin:round;stroke-dasharray:4.342,5.7894;}
	.st12{fill:#5EB4E5;}
	.st13{fill:none;stroke:#66ECEE;stroke-linecap:round;stroke-linejoin:round;stroke-miterlimit:10;}
	.st14{fill:none;stroke:#7CDFF9;stroke-linecap:round;stroke-linejoin:round;stroke-miterlimit:10;}
	.st15{fill:none;stroke:#5EB4E5;stroke-miterlimit:10;}
	.st16{fill:none;stroke:#6FE6F3;stroke-miterlimit:10;}
	.st17{fill:none;stroke:#66ECEE;stroke-miterlimit:10;}
	.st18{fill:none;stroke:#86FFEE;stroke-miterlimit:10;}
	.st19{fill:none;stroke:#76E2F7;stroke-miterlimit:10;}
	.st20{fill:none;stroke:#1D1D1B;stroke-width:0.8504;stroke-linecap:round;stroke-linejoin:round;stroke-dasharray:4.3988,5.865;}
	.st21{fill:none;stroke:#1D1D1B;stroke-width:0.8504;stroke-miterlimit:10;}
	.st22{fill:none;stroke:#87FFEB;stroke-width:0.8504;stroke-linecap:round;stroke-linejoin:round;stroke-miterlimit:10;}
	.st23{fill:none;stroke:#87FFEB;stroke-width:0.8504;stroke-linecap:round;stroke-linejoin:round;}
	.st24{fill:none;stroke:#87FFEB;stroke-width:0.8504;stroke-linecap:round;stroke-linejoin:round;stroke-dasharray:4.4104,5.8806;}
	.st25{fill:#87FFEB;}
	.st26{fill:#7ADEF8;}
	.st27{fill:#76E2F6;}
	.st28{fill:#6FE6F3;}
</style>
<g>
	<path class="st19" d="M56.9,16.7l-8.4-9.9c-0.7-0.9-2.3-0.9-2.9,0l-8.5,9.9c-0.6,0.9,0.2,2,1.5,2l4.1,0l0,10.8c0,2,1.9,3.5,4.3,3.5
		c2.4,0,4.3-1.6,4.3-3.5l0-10.8l4.1,0C56.8,18.7,57.6,17.6,56.9,16.7z"/>
	<path class="st19" d="M56.9,63.3l-8.4,9.9c-0.7,0.9-2.3,0.9-2.9,0l-8.5-9.9c-0.6-0.9,0.2-2,1.5-2l4.1,0l0-10.8c0-2,1.9-3.5,4.3-3.5
		c2.4,0,4.3,1.6,4.3,3.5l0,10.8l4.1,0C56.8,61.3,57.6,62.4,56.9,63.3z"/>
	<path class="st19" d="M18.3,31.9L6.2,38.8c-1.1,0.5-1.1,1.9,0,2.4l12.1,6.9c1.1,0.5,2.5-0.1,2.5-1.2l0-3.3l13.2,0
		c2.4,0,4.3-1.6,4.3-3.5c0-2-1.9-3.5-4.3-3.5l-13.2,0l0-3.3C20.9,32.1,19.5,31.4,18.3,31.9z"/>
	<path class="st19" d="M75.7,31.9l12.1,6.9c1.1,0.5,1.1,1.9,0,2.4l-12.1,6.9c-1.1,0.5-2.5-0.1-2.5-1.2l0-3.3l-13.2,0
		c-2.4,0-4.3-1.6-4.3-3.5c0-2,1.9-3.5,4.3-3.5l13.2,0l0-3.3C73.1,32.1,74.5,31.4,75.7,31.9z"/>
</g>
</svg>
