<?xml version="1.0" encoding="utf-8"?>
<!-- Generator: Adobe Illustrator 21.0.2, SVG Export Plug-In . SVG Version: 6.00 Build 0)  -->
<svg version="1.1" id="Layer_1" xmlns="http://www.w3.org/2000/svg" xmlns:xlink="http://www.w3.org/1999/xlink" x="0px" y="0px"
	 viewBox="0 0 94 80" style="enable-background:new 0 0 94 80;" xml:space="preserve">
<style type="text/css">
	.st0{fill:none;stroke:#5EB4E5;stroke-width:0.8504;stroke-linecap:round;stroke-linejoin:round;stroke-miterlimit:10;}
	.st1{fill:none;stroke:#1D1D1B;stroke-width:0.8504;stroke-linecap:round;stroke-linejoin:round;stroke-miterlimit:10;}
	.st2{fill:none;stroke:#1D1D1B;stroke-width:0.8504;stroke-linecap:round;stroke-linejoin:round;}
	.st3{fill:none;stroke:#1D1D1B;stroke-width:0.8504;stroke-linecap:round;stroke-linejoin:round;stroke-dasharray:4.0069,5.3426;}
	.st4{fill:#1D1D1B;}
	.st5{fill:none;stroke:#1D1D1B;stroke-width:0.7087;stroke-linecap:round;stroke-linejoin:round;stroke-miterlimit:10;}
	.st6{fill:none;stroke:#1D1D1B;stroke-width:0.7087;stroke-miterlimit:10;}
	.st7{fill:none;stroke:#F6E71D;stroke-width:0.8504;stroke-miterlimit:10;}
	.st8{fill:none;stroke:#5EB4E5;stroke-linecap:round;stroke-linejoin:round;stroke-miterlimit:10;}
	.st9{fill:none;stroke:#57F5E7;stroke-linecap:round;stroke-linejoin:round;stroke-miterlimit:10;}
	.st10{fill:none;stroke:#5EB4E5;stroke-linecap:round;stroke-linejoin:round;}
	.st11{fill:none;stroke:#5EB4E5;stroke-linecap:round;stroke-linejoin:round;stroke-dasharray:4.342,5.7894;}
	.st12{fill:#5EB4E5;}
	.st13{fill:none;stroke:#66ECEE;stroke-linecap:round;stroke-linejoin:round;stroke-miterlimit:10;}
	.st14{fill:none;stroke:#7CDFF9;stroke-linecap:round;stroke-linejoin:round;stroke-miterlimit:10;}
	.st15{fill:none;stroke:#5EB4E5;stroke-miterlimit:10;}
	.st16{fill:none;stroke:#6FE6F3;stroke-miterlimit:10;}
	.st17{fill:none;stroke:#66ECEE;stroke-miterlimit:10;}
	.st18{fill:none;stroke:#86FFEE;stroke-miterlimit:10;}
	.st19{fill:none;stroke:#76E2F7;stroke-miterlimit:10;}
	.st20{fill:none;stroke:#1D1D1B;stroke-width:0.8504;stroke-linecap:round;stroke-linejoin:round;stroke-dasharray:4.3988,5.865;}
	.st21{fill:none;stroke:#1D1D1B;stroke-width:0.8504;stroke-miterlimit:10;}
	.st22{fill:none;stroke:#87FFEB;stroke-width:0.8504;stroke-linecap:round;stroke-linejoin:round;stroke-miterlimit:10;}
	.st23{fill:none;stroke:#87FFEB;stroke-width:0.8504;stroke-linecap:round;stroke-linejoin:round;}
	.st24{fill:none;stroke:#87FFEB;stroke-width:0.8504;stroke-linecap:round;stroke-linejoin:round;stroke-dasharray:4.4104,5.8806;}
	.st25{fill:#87FFEB;}
	.st26{fill:#7ADEF8;}
	.st27{fill:#76E2F6;}
	.st28{fill:#6FE6F3;}
</style>
<g>
	<path class="st9" d="M36.5,61.2c6.5,2.7,13.6,3.2,19.9,0.7"/>
	<path class="st9" d="M57.2,18.2c-8.8-4.3-20.6-3.2-28.5,3.2l-4.3,3.5c-8,6.5-9.4,16.3-4.1,23.6"/>
	<path class="st9" d="M54.8,21.7l4-3.2c3.8-3.1,9.9-3.2,13.5-0.1l1.9,1.6c3.6,3,3.5,8-0.4,11.1l-4,3.2L54.8,21.7z"/>
	<path class="st9" d="M39.4,58.8l-4,3.2c-3.8,3.1-9.9,3.2-13.5,0.1l-1.9-1.6c-3.6-3-3.5-8,0.4-11.1l4-3.2L39.4,58.8z"/>
	<path class="st9" d="M57.3,62.2c1.7,1.4,4.4,1.4,6.2-0.1l6.6-5.4c1.8-1.4,1.8-3.7,0.2-5.1l0,0c-1.7-1.4-4.4-1.4-6.2,0.1l-6.6,5.4
		C55.7,58.5,55.6,60.8,57.3,62.2L57.3,62.2z"/>
</g>
</svg>
