<?xml version="1.0" encoding="utf-8"?>
<!-- Generator: Adobe Illustrator 16.0.4, SVG Export Plug-In . SVG Version: 6.00 Build 0)  -->
<!DOCTYPE svg PUBLIC "-//W3C//DTD SVG 1.1//EN" "http://www.w3.org/Graphics/SVG/1.1/DTD/svg11.dtd">
<svg version="1.1" id="Layer_1" xmlns="http://www.w3.org/2000/svg" xmlns:xlink="http://www.w3.org/1999/xlink" x="0px" y="0px"
	 width="39.69px" height="39.69px" viewBox="0 0 39.69 39.69" enable-background="new 0 0 39.69 39.69" xml:space="preserve">
<g>
	<circle fill="#FFACFF" cx="19.84" cy="19.845" r="19.843"/>
	<g>
		<g>
			<path fill="#4A3A87" d="M28.501,18.704l-1.147-1.569c-0.072-0.101-0.076-0.24-0.004-0.341l1.123-1.584
				c0.1-0.144,0.053-0.345-0.102-0.427l-1.713-0.917c-0.11-0.058-0.173-0.182-0.148-0.307l0.321-1.915
				c0.028-0.173-0.101-0.336-0.278-0.34l-1.939-0.082c-0.124-0.005-0.234-0.092-0.268-0.211L23.808,9.14
				c-0.048-0.168-0.235-0.259-0.398-0.187L21.624,9.72c-0.115,0.048-0.249,0.019-0.336-0.072l-1.296-1.445
				c-0.12-0.129-0.321-0.129-0.441,0.004l-1.276,1.464c-0.082,0.097-0.216,0.125-0.331,0.077L16.148,9.01
				c-0.163-0.068-0.346,0.024-0.394,0.192l-0.514,1.872c-0.033,0.12-0.139,0.206-0.264,0.216l-1.939,0.11
				c-0.178,0.01-0.302,0.172-0.273,0.345l0.351,1.91c0.024,0.125-0.039,0.25-0.144,0.307l-1.699,0.941
				c-0.153,0.086-0.196,0.288-0.096,0.427l1.147,1.569C12.396,17,12.4,17.14,12.328,17.24l-1.123,1.584
				c-0.101,0.144-0.053,0.345,0.101,0.427l1.713,0.917c0.11,0.058,0.173,0.182,0.148,0.307l-0.321,1.914
				c-0.029,0.174,0.101,0.336,0.278,0.342l1.938,0.082c0.125,0.004,0.235,0.09,0.269,0.211l0.542,1.865
				c0.048,0.168,0.235,0.26,0.398,0.188l1.786-0.768c0.115-0.047,0.249-0.02,0.336,0.072l1.295,1.443
				c0.12,0.131,0.322,0.131,0.442-0.004l1.276-1.463c0.081-0.096,0.216-0.125,0.331-0.078l1.795,0.74
				c0.163,0.066,0.346-0.025,0.394-0.191l0.514-1.873c0.033-0.119,0.139-0.205,0.264-0.215l1.938-0.111
				c0.178-0.01,0.302-0.172,0.274-0.346l-0.352-1.909c-0.023-0.125,0.039-0.25,0.145-0.308l1.699-0.94
				C28.563,19.049,28.606,18.848,28.501,18.704z M19.844,22.289c-2.903,0-5.27-2.366-5.27-5.27s2.366-5.27,5.27-5.27
				s5.27,2.366,5.27,5.27C25.113,19.928,22.747,22.289,19.844,22.289z"/>
			<path fill="#4A3A87" d="M24.59,25.695c-0.278,0.283-0.667,0.451-1.084,0.451c-0.149,0-0.298-0.023-0.438-0.062l-1.238-0.375
				l-0.955,0.875c-0.034,0.027-0.062,0.057-0.096,0.082l1.535,4.76c0.054,0.168,0.27,0.207,0.38,0.066l1.118-1.434
				c0.053-0.072,0.148-0.102,0.23-0.078l1.742,0.51c0.168,0.047,0.321-0.111,0.269-0.273L24.59,25.695z"/>
			<path fill="#4A3A87" d="M17.862,25.709l-1.238,0.375c-0.144,0.043-0.288,0.062-0.437,0.062c-0.417,0-0.801-0.168-1.084-0.451
				l-1.463,4.525c-0.053,0.168,0.101,0.322,0.269,0.273l1.742-0.508c0.086-0.025,0.177,0.004,0.23,0.076l1.118,1.436
				c0.105,0.139,0.326,0.1,0.379-0.068l1.536-4.76c-0.034-0.023-0.067-0.053-0.096-0.082L17.862,25.709z"/>
			<path fill="#4A3A87" d="M22.968,15.709l-1.987-0.144l-0.749-1.843c-0.139-0.346-0.634-0.346-0.772,0l-0.749,1.843l-1.987,0.144
				c-0.375,0.029-0.523,0.494-0.24,0.734l1.521,1.286l-0.476,1.934c-0.091,0.365,0.308,0.653,0.624,0.456l1.689-1.051l1.689,1.051
				c0.316,0.197,0.715-0.091,0.623-0.456l-0.475-1.934l1.521-1.286C23.49,16.204,23.342,15.738,22.968,15.709z"/>
		</g>
	</g>
</g>
</svg>
