<?xml version="1.0" encoding="utf-8"?>
<!-- Generator: Adobe Illustrator 16.0.4, SVG Export Plug-In . SVG Version: 6.00 Build 0)  -->
<!DOCTYPE svg PUBLIC "-//W3C//DTD SVG 1.1//EN" "http://www.w3.org/Graphics/SVG/1.1/DTD/svg11.dtd">
<svg version="1.1" id="Layer_1" xmlns="http://www.w3.org/2000/svg" xmlns:xlink="http://www.w3.org/1999/xlink" x="0px" y="0px"
	 width="39.69px" height="39.69px" viewBox="0 0 39.69 39.69" enable-background="new 0 0 39.69 39.69" xml:space="preserve">
<circle fill="#FFACFF" cx="19.845" cy="19.845" r="19.842"/>
<g>
	<g>
		<path fill="#4A3A87" stroke="#4A3A87" stroke-width="0.2835" stroke-miterlimit="10" d="M24.012,12.786
			c-1.178-1.132-2.725-1.716-4.362-1.657c-3.14,0.125-5.7,2.78-5.71,5.925c-0.005,1.393,0.484,2.75,1.377,3.817
			c1.288,1.548,1.997,3.5,1.997,5.501c0,0-0.135,0.919,0.519,0.919h4.112c0.669,0,0.52-0.919,0.52-0.919
			c0-1.956,0.719-3.894,2.082-5.601c0.843-1.063,1.291-2.34,1.291-3.698C25.838,15.441,25.189,13.914,24.012,12.786L24.012,12.786z
			 M23.732,20.123c-1.482,1.857-2.275,3.973-2.306,6.129h-3.075c-0.03-2.201-0.818-4.342-2.236-6.044
			c-0.734-0.883-1.138-2.001-1.133-3.149c0.01-2.595,2.121-4.787,4.712-4.892c1.352-0.049,2.63,0.435,3.598,1.368
			c0.974,0.933,1.508,2.191,1.508,3.539C24.795,18.197,24.432,19.25,23.732,20.123z"/>
		<path fill="#4A3A87" stroke="#4A3A87" stroke-width="0.2835" stroke-miterlimit="10" d="M26.737,9.377
			c-0.204-0.205-0.534-0.205-0.733,0l-1.268,1.268c-0.205,0.205-0.205,0.534,0,0.733c0.204,0.2,0.533,0.205,0.732,0l1.269-1.268
			C26.941,9.912,26.941,9.582,26.737,9.377z"/>
		<path fill="#4A3A87" stroke="#4A3A87" stroke-width="0.2835" stroke-miterlimit="10" d="M21.966,27.999h-4.153
			c-0.29,0-0.519,0.235-0.519,0.519c0,0.291,0.234,0.52,0.519,0.52h4.153c0.289,0,0.519-0.234,0.519-0.52
			C22.484,28.234,22.25,27.999,21.966,27.999z"/>
		<path fill="#4A3A87" stroke="#4A3A87" stroke-width="0.2835" stroke-miterlimit="10" d="M21.182,29.955h-2.58
			c-0.29,0-0.519,0.235-0.519,0.52c0,0.29,0.235,0.52,0.519,0.52h2.58c0.289,0,0.52-0.234,0.52-0.52
			C21.701,30.19,21.467,29.955,21.182,29.955z"/>
		<path fill="#4A3A87" stroke="#4A3A87" stroke-width="0.2835" stroke-miterlimit="10" d="M19.889,9.373
			c0.29,0,0.52-0.235,0.52-0.52V7.061c0-0.289-0.235-0.519-0.52-0.519S19.37,6.776,19.37,7.061v1.792
			C19.37,9.143,19.599,9.373,19.889,9.373z"/>
		<path fill="#4A3A87" stroke="#4A3A87" stroke-width="0.2835" stroke-miterlimit="10" d="M15.042,11.383
			c0.205-0.204,0.205-0.534,0-0.733l-1.268-1.268c-0.205-0.205-0.534-0.205-0.734,0c-0.199,0.204-0.205,0.534,0,0.733l1.268,1.268
			C14.514,11.583,14.843,11.583,15.042,11.383z"/>
		<path fill="#4A3A87" stroke="#4A3A87" stroke-width="0.2835" stroke-miterlimit="10" d="M29.053,15.706h-1.791
			c-0.29,0-0.52,0.234-0.52,0.519c0,0.284,0.234,0.519,0.52,0.519h1.791c0.29,0,0.52-0.235,0.52-0.519
			C29.572,15.94,29.338,15.706,29.053,15.706z"/>
		<path fill="#4A3A87" stroke="#4A3A87" stroke-width="0.2835" stroke-miterlimit="10" d="M12.517,15.706h-1.792
			c-0.29,0-0.519,0.234-0.519,0.519c0,0.284,0.235,0.519,0.519,0.519h1.792c0.29,0,0.519-0.235,0.519-0.519
			C13.036,15.94,12.807,15.706,12.517,15.706z"/>
	</g>
</g>
</svg>
