<?xml version="1.0" encoding="utf-8"?>
<!-- Generator: Adobe Illustrator 16.0.4, SVG Export Plug-In . SVG Version: 6.00 Build 0)  -->
<!DOCTYPE svg PUBLIC "-//W3C//DTD SVG 1.1//EN" "http://www.w3.org/Graphics/SVG/1.1/DTD/svg11.dtd">
<svg version="1.1" id="Layer_1" xmlns="http://www.w3.org/2000/svg" xmlns:xlink="http://www.w3.org/1999/xlink" x="0px" y="0px"
	 width="39.69px" height="39.69px" viewBox="0 0 39.69 39.69" enable-background="new 0 0 39.69 39.69" xml:space="preserve">
<circle fill="#FFACFF" cx="19.845" cy="19.845" r="19.843"/>
<g>
	<path fill="#4A3A87" d="M28.242,19.732c0.361-0.546,0.541-1.147,0.541-1.805c0-0.76-0.279-1.42-0.84-1.982
		c-0.562-0.561-1.227-0.84-1.992-0.84h-1.949c0.354-0.731,0.531-1.439,0.531-2.126c0-0.863-0.129-1.549-0.387-2.059
		c-0.26-0.51-0.635-0.884-1.129-1.124c-0.496-0.239-1.053-0.359-1.672-0.359c-0.377,0-0.708,0.136-0.997,0.41
		c-0.317,0.31-0.546,0.708-0.687,1.196c-0.14,0.486-0.252,0.953-0.337,1.4c-0.084,0.447-0.216,0.762-0.393,0.947
		c-0.361,0.391-0.756,0.863-1.184,1.417c-0.746,0.966-1.251,1.539-1.517,1.715h-3.033c-0.391,0-0.725,0.139-1.002,0.416
		c-0.277,0.276-0.415,0.61-0.415,1.001v7.083c0,0.393,0.138,0.727,0.415,1.002c0.277,0.277,0.611,0.416,1.002,0.416h3.188
		c0.162,0,0.671,0.148,1.527,0.443c0.908,0.316,1.707,0.559,2.396,0.725c0.689,0.166,1.39,0.248,2.098,0.248h1.029h0.398
		c1.041,0,1.877-0.297,2.512-0.891s0.949-1.404,0.941-2.43c0.443-0.568,0.664-1.225,0.664-1.971c0-0.16-0.01-0.32-0.033-0.475
		c0.281-0.494,0.422-1.025,0.422-1.594C28.342,20.23,28.309,19.975,28.242,19.732z M14.405,24.812
		c-0.14,0.141-0.307,0.211-0.498,0.211c-0.192,0-0.358-0.07-0.499-0.211c-0.14-0.141-0.21-0.307-0.21-0.498s0.07-0.357,0.21-0.498
		c0.141-0.141,0.307-0.211,0.499-0.211c0.191,0,0.358,0.07,0.498,0.211s0.21,0.307,0.21,0.498S14.545,24.672,14.405,24.812z
		 M27.129,18.836c-0.158,0.339-0.355,0.512-0.592,0.52c0.111,0.125,0.203,0.301,0.277,0.526c0.072,0.225,0.109,0.431,0.109,0.615
		c0,0.507-0.195,0.947-0.586,1.316c0.133,0.236,0.199,0.492,0.199,0.764c0,0.273-0.064,0.545-0.193,0.814
		c-0.129,0.268-0.305,0.463-0.525,0.58c0.035,0.221,0.055,0.428,0.055,0.619c0,1.234-0.709,1.85-2.125,1.85h-1.34
		c-0.967,0-2.228-0.27-3.785-0.809c-0.037-0.014-0.144-0.053-0.322-0.115c-0.177-0.062-0.308-0.109-0.393-0.139
		c-0.085-0.031-0.214-0.072-0.387-0.127c-0.173-0.057-0.313-0.096-0.421-0.123c-0.107-0.025-0.229-0.049-0.365-0.072
		c-0.136-0.021-0.253-0.033-0.349-0.033h-0.354v-7.083h0.354c0.118,0,0.249-0.033,0.393-0.1s0.291-0.166,0.443-0.299
		c0.151-0.133,0.293-0.264,0.426-0.393c0.133-0.129,0.28-0.292,0.443-0.487c0.162-0.195,0.29-0.352,0.382-0.471
		c0.093-0.117,0.208-0.269,0.349-0.454c0.14-0.185,0.225-0.295,0.254-0.332c0.405-0.502,0.69-0.838,0.852-1.007
		c0.303-0.317,0.522-0.721,0.659-1.212c0.137-0.49,0.25-0.954,0.337-1.389c0.089-0.436,0.229-0.749,0.421-0.941
		c0.709,0,1.18,0.173,1.416,0.521s0.355,0.882,0.355,1.605c0,0.435-0.178,1.027-0.533,1.776c-0.354,0.749-0.529,1.338-0.529,1.765
		h3.896c0.369,0,0.697,0.142,0.984,0.426c0.287,0.285,0.432,0.615,0.432,0.991C27.367,18.197,27.287,18.496,27.129,18.836z"/>
</g>
</svg>
