<?xml version="1.0" encoding="utf-8"?>
<!-- Generator: Adobe Illustrator 16.0.4, SVG Export Plug-In . SVG Version: 6.00 Build 0)  -->
<!DOCTYPE svg PUBLIC "-//W3C//DTD SVG 1.1//EN" "http://www.w3.org/Graphics/SVG/1.1/DTD/svg11.dtd">
<svg version="1.1" id="Layer_1" xmlns="http://www.w3.org/2000/svg" xmlns:xlink="http://www.w3.org/1999/xlink" x="0px" y="0px"
	 width="39.689px" height="39.689px" viewBox="0 0 39.689 39.689" enable-background="new 0 0 39.689 39.689" xml:space="preserve">
<circle fill="#FFACFF" cx="19.845" cy="19.844" r="19.843"/>
<g>
	<g>
		<path fill="#4A3A87" stroke="#4A3A87" stroke-width="0.7087" stroke-miterlimit="10" d="M25.898,15.857v-2.085
			c0-2.97-2.668-5.386-5.943-5.386c-3.277,0-5.943,2.416-5.943,5.386c0,0.206,0.166,0.372,0.371,0.372s0.372-0.166,0.372-0.372
			c0-2.56,2.332-4.643,5.2-4.643c2.867,0,5.199,2.083,5.199,4.643v2.043H14.468c-1.481,0-2.685,1.205-2.685,2.686v7.259
			c0,1.479,1.203,2.686,2.685,2.686h10.974c1.48,0,2.687-1.205,2.687-2.686V18.5C28.127,17.176,27.16,16.075,25.898,15.857z
			 M27.385,25.76c0,1.07-0.873,1.941-1.943,1.941H14.468c-1.071,0-1.942-0.871-1.942-1.941V18.5c0-1.071,0.872-1.942,1.942-1.942
			h10.974c1.07,0,1.943,0.871,1.943,1.942V25.76z"/>
		<path fill="#4A3A87" stroke="#4A3A87" stroke-width="0.7087" stroke-miterlimit="10" d="M19.955,19.354
			c-0.819,0-1.485,0.666-1.485,1.486v2.228c0,0.82,0.666,1.486,1.485,1.486c0.818,0,1.486-0.666,1.486-1.486V20.84
			C21.441,20.021,20.774,19.354,19.955,19.354z M20.698,23.068c0,0.41-0.335,0.744-0.743,0.744c-0.409,0-0.743-0.334-0.743-0.744
			V20.84c0-0.41,0.334-0.743,0.743-0.743c0.408,0,0.743,0.333,0.743,0.743V23.068z"/>
	</g>
</g>
<rect x="14.028" y="13.804" fill="#4A3A87" stroke="#4A3A87" stroke-width="0.7087" stroke-linecap="round" stroke-linejoin="round" stroke-miterlimit="10" width="0.697" height="2.512"/>
</svg>
