<?xml version="1.0" encoding="utf-8"?>
<!-- Generator: Adobe Illustrator 16.0.4, SVG Export Plug-In . SVG Version: 6.00 Build 0)  -->
<!DOCTYPE svg PUBLIC "-//W3C//DTD SVG 1.1//EN" "http://www.w3.org/Graphics/SVG/1.1/DTD/svg11.dtd">
<svg version="1.1" id="Layer_1" xmlns="http://www.w3.org/2000/svg" xmlns:xlink="http://www.w3.org/1999/xlink" x="0px" y="0px"
	 width="39.689px" height="39.689px" viewBox="0 0 39.689 39.689" enable-background="new 0 0 39.689 39.689" xml:space="preserve">
<circle fill="#FFACFF" cx="19.845" cy="19.844" r="19.843"/>
<g>
	
		<path fill="none" stroke="#4A3A87" stroke-width="1.2756" stroke-linecap="round" stroke-linejoin="round" stroke-miterlimit="10" d="
		M27.664,12.615c-1.881-1.961-4.527-3.182-7.459-3.182c-5.707,0-10.333,4.626-10.333,10.333c0,5.708,4.626,10.333,10.333,10.333
		c3.894,0.002,7.282-2.152,9.045-5.332"/>
	
		<path fill="none" stroke="#4A3A87" stroke-width="1.2756" stroke-linecap="round" stroke-linejoin="round" stroke-miterlimit="10" d="
		M23.279,16.485c-0.862-0.9-2.077-1.46-3.422-1.46c-2.62,0-4.743,2.123-4.743,4.742c0,2.62,2.123,4.743,4.743,4.743
		c1.786,0,3.343-0.988,4.15-2.447"/>
	
		<polyline fill="none" stroke="#4A3A87" stroke-width="1.2756" stroke-linecap="round" stroke-linejoin="round" stroke-miterlimit="10" points="
		27.721,9.434 27.934,12.878 24.504,13.276 	"/>
	
		<line fill="none" stroke="#4A3A87" stroke-width="1.2756" stroke-linecap="round" stroke-linejoin="round" stroke-miterlimit="10" x1="13.673" y1="18.659" x2="19.818" y2="18.659"/>
	
		<line fill="none" stroke="#4A3A87" stroke-width="1.2756" stroke-linecap="round" stroke-linejoin="round" stroke-miterlimit="10" x1="13.673" y1="21.206" x2="19.818" y2="21.206"/>
</g>
</svg>
