<?xml version="1.0" encoding="utf-8"?>
<!-- Generator: Adobe Illustrator 16.0.4, SVG Export Plug-In . SVG Version: 6.00 Build 0)  -->
<!DOCTYPE svg PUBLIC "-//W3C//DTD SVG 1.1//EN" "http://www.w3.org/Graphics/SVG/1.1/DTD/svg11.dtd">
<svg version="1.1" id="Layer_1" xmlns="http://www.w3.org/2000/svg" xmlns:xlink="http://www.w3.org/1999/xlink" x="0px" y="0px"
	 width="49.188px" height="49.188px" viewBox="0 0 49.188 49.188" enable-background="new 0 0 49.188 49.188" xml:space="preserve">
<circle fill="#FFACFF" cx="24.61" cy="24.609" r="24.608"/>
<g>
	<g>
		<polygon fill="#4A3A87" points="34.036,26.675 34.036,32.539 26,24.504 34.025,16.478 34.025,22.341 36.014,22.341 36.015,13.083 
			26.757,13.084 26.756,15.071 32.619,15.071 24.594,23.098 16.558,15.062 22.42,15.062 22.42,13.073 13.163,13.073 13.163,22.33 
			15.152,22.332 15.152,16.469 23.188,24.504 15.162,32.529 15.162,26.667 13.173,26.667 13.173,35.927 22.43,35.924 22.432,33.937 
			16.568,33.937 24.594,25.91 32.629,33.946 26.766,33.946 26.766,35.935 36.025,35.935 36.025,26.677 		"/>
	</g>
</g>
</svg>
