<?xml version="1.0" encoding="utf-8"?>
<!-- Generator: Adobe Illustrator 16.0.4, SVG Export Plug-In . SVG Version: 6.00 Build 0)  -->
<!DOCTYPE svg PUBLIC "-//W3C//DTD SVG 1.1//EN" "http://www.w3.org/Graphics/SVG/1.1/DTD/svg11.dtd">
<svg version="1.1" id="Layer_1" xmlns="http://www.w3.org/2000/svg" xmlns:xlink="http://www.w3.org/1999/xlink" x="0px" y="0px"
	 width="39.689px" height="39.689px" viewBox="0 0 39.689 39.689" enable-background="new 0 0 39.689 39.689" xml:space="preserve">
<circle fill="#FFACFF" cx="19.845" cy="19.844" r="19.843"/>
<g>
	<g id="Layer_1_129_">
		<g>
			<g>
				<path fill="#4A3A87" d="M19.426,16.78c0.111-1.209,0.54-2.324,1.202-3.269c-0.539-2.446-2.723-4.283-5.327-4.283
					c-3.007,0-5.455,2.447-5.455,5.456c0,2.618,1.854,4.81,4.318,5.334C15.404,18.328,17.273,17.134,19.426,16.78z M13.12,15.982
					c0-0.197,0.151-0.352,0.351-0.352h1.12v-0.262l-0.153-0.263H13.47c-0.199,0-0.351-0.152-0.351-0.352s0.151-0.353,0.351-0.353
					h0.55l-1.189-1.957c-0.063-0.107-0.126-0.242-0.126-0.369c0-0.496,0.46-0.658,0.774-0.658c0.379,0,0.55,0.298,0.614,0.424
					l1.208,2.301l1.208-2.301c0.063-0.126,0.235-0.424,0.613-0.424c0.315,0,0.774,0.163,0.774,0.658
					c0,0.127-0.062,0.262-0.125,0.369l-1.19,1.958h0.55c0.198,0,0.352,0.153,0.352,0.353c0,0.198-0.152,0.352-0.352,0.352h-0.964
					l-0.153,0.263v0.262h1.118c0.198,0,0.352,0.153,0.352,0.352c0,0.199-0.152,0.353-0.352,0.353h-1.118v0.892
					c0,0.435-0.262,0.722-0.712,0.722c-0.451,0-0.712-0.288-0.712-0.722v-0.892h-1.12C13.271,16.334,13.12,16.181,13.12,15.982z"/>
			</g>
			<g>
				<path fill="#4A3A87" d="M26.214,11.956c-2.755,0-5.032,2.054-5.398,4.709c1.041,0.007,2.033,0.213,2.947,0.576
					c0.062-0.14,0.187-0.228,0.38-0.228h0.189c-0.189-0.271-0.271-0.613-0.271-0.965c0-1.118,0.992-1.903,2.265-1.903
					c1.579,0,2.346,0.849,2.346,1.551c0,0.407-0.279,0.633-0.677,0.633c-0.794,0-0.308-1.102-1.524-1.102
					c-0.531,0-1.037,0.316-1.037,0.902c0,0.307,0.153,0.613,0.298,0.884h0.983c0.369,0,0.56,0.135,0.56,0.433
					c0,0.299-0.188,0.434-0.56,0.434h-0.713c0.026,0.073,0.046,0.136,0.046,0.217c0,0.146-0.036,0.29-0.093,0.431
					c0.295,0.244,0.566,0.515,0.825,0.795c0.25,0.052,0.474,0.109,0.737,0.109c0.152,0,0.523-0.099,0.667-0.099
					c0.332,0,0.523,0.252,0.523,0.576c0,0.509-0.456,0.729-0.927,0.761c0.312,0.521,0.57,1.079,0.763,1.667
					c1.844-0.877,3.125-2.751,3.125-4.925C31.667,14.403,29.22,11.956,26.214,11.956z"/>
			</g>
			<g>
				<path fill="#4A3A87" d="M21.118,25.494v2.231c0.676-0.045,1.387-0.358,1.387-1.104C22.505,25.855,21.726,25.629,21.118,25.494z"
					/>
			</g>
			<g>
				<path fill="#4A3A87" d="M19.179,22.822c0,0.564,0.418,0.892,1.263,1.062v-2.021C19.674,21.887,19.179,22.338,19.179,22.822z"/>
			</g>
			<g>
				<path fill="#4A3A87" d="M20.757,18.025c-3.759,0-6.819,3.06-6.819,6.82c0,3.76,3.061,6.818,6.819,6.818
					c3.761,0,6.821-3.06,6.821-6.818C27.578,21.084,24.518,18.025,20.757,18.025z M21.118,28.877v0.699
					c0,0.19-0.147,0.383-0.34,0.383c-0.189,0-0.338-0.189-0.338-0.383v-0.699c-1.904-0.045-2.853-1.185-2.853-2.074
					c0-0.451,0.27-0.711,0.7-0.711c1.262,0,0.28,1.557,2.152,1.635v-2.354c-1.67-0.306-2.683-1.037-2.683-2.289
					c0-1.533,1.272-2.323,2.683-2.368v-0.602c0-0.191,0.147-0.384,0.338-0.384c0.191,0,0.34,0.191,0.34,0.384v0.602
					c0.879,0.022,2.682,0.575,2.682,1.68c0,0.439-0.326,0.697-0.71,0.697c-0.732,0-0.722-1.205-1.971-1.229v2.144
					c1.487,0.315,2.806,0.756,2.806,2.492C23.925,28.01,22.798,28.777,21.118,28.877z"/>
			</g>
		</g>
	</g>
</g>
</svg>
