<?xml version="1.0" encoding="utf-8"?>
<!-- Generator: Adobe Illustrator 16.0.4, SVG Export Plug-In . SVG Version: 6.00 Build 0)  -->
<!DOCTYPE svg PUBLIC "-//W3C//DTD SVG 1.1//EN" "http://www.w3.org/Graphics/SVG/1.1/DTD/svg11.dtd">
<svg version="1.1" id="Layer_1" xmlns="http://www.w3.org/2000/svg" xmlns:xlink="http://www.w3.org/1999/xlink" x="0px" y="0px"
	 width="39.689px" height="39.689px" viewBox="0 0 39.689 39.689" enable-background="new 0 0 39.689 39.689" xml:space="preserve">
<circle fill="#FFACFF" cx="19.845" cy="19.844" r="19.843"/>
<g>
	<g id="Layer_1_43_">
		<g>
			<path fill="#4A3A87" d="M29.625,14.018h-4.576c0.627,0.562,1.166,1.22,1.586,1.955h2.99c0.539,0,0.979-0.438,0.979-0.978
				S30.164,14.018,29.625,14.018z"/>
			<path fill="#4A3A87" d="M29.625,16.484h-2.728c0.295,0.614,0.511,1.27,0.638,1.955h2.09c0.539,0,0.979-0.437,0.979-0.978
				C30.604,16.921,30.164,16.484,29.625,16.484z"/>
			<path fill="#4A3A87" d="M29.625,11.553h-7.24c-0.422,0-0.777,0.267-0.916,0.64c1.084,0.229,2.08,0.688,2.947,1.315h5.209
				c0.541,0,0.979-0.438,0.979-0.979S30.164,11.553,29.625,11.553z"/>
			<path fill="#4A3A87" d="M22.385,11.043h7.24c0.539,0,0.979-0.438,0.979-0.979s-0.438-0.978-0.979-0.978h-7.24
				c-0.541,0-0.979,0.438-0.979,0.978C21.406,10.606,21.844,11.043,22.385,11.043z"/>
			<path fill="#4A3A87" d="M29.625,18.948h-2.013c0.033,0.296,0.056,0.595,0.056,0.896c0,0.36-0.033,0.713-0.08,1.061h2.035
				c0.541,0,0.979-0.438,0.979-0.979C30.602,19.385,30.164,18.948,29.625,18.948z"/>
			<path fill="#4A3A87" d="M29.625,21.415H27.51c-0.141,0.688-0.381,1.344-0.691,1.955h2.808c0.539,0,0.979-0.438,0.979-0.979
				S30.164,21.415,29.625,21.415z"/>
			<path fill="#4A3A87" d="M29.625,23.88h-3.09c-0.449,0.74-1.011,1.401-1.668,1.955h4.758c0.539,0,0.979-0.438,0.979-0.979
				C30.604,24.317,30.164,23.88,29.625,23.88z"/>
			<path fill="#4A3A87" d="M10.066,20.741h2.011c-0.034-0.296-0.056-0.593-0.056-0.896c0-0.359,0.033-0.713,0.08-1.059h-2.035
				c-0.541,0-0.979,0.438-0.979,0.979C9.087,20.303,9.525,20.741,10.066,20.741z"/>
			<path fill="#4A3A87" d="M10.066,23.208h2.726c-0.293-0.615-0.511-1.271-0.638-1.957h-2.088c-0.541,0-0.979,0.438-0.979,0.979
				C9.087,22.769,9.525,23.208,10.066,23.208z"/>
			<path fill="#4A3A87" d="M10.066,18.276h2.114c0.141-0.689,0.379-1.344,0.69-1.955h-2.806c-0.541-0.001-0.979,0.438-0.979,0.979
				C9.087,17.838,9.525,18.276,10.066,18.276z"/>
			<path fill="#4A3A87" d="M10.066,15.811h3.089c0.447-0.74,1.009-1.401,1.667-1.956h-4.757c-0.541,0-0.979,0.438-0.979,0.979
				S9.525,15.811,10.066,15.811z"/>
			<path fill="#4A3A87" d="M10.066,25.673h4.576c-0.628-0.562-1.166-1.221-1.587-1.957h-2.989c-0.541,0-0.979,0.438-0.979,0.979
				C9.087,25.233,9.525,25.673,10.066,25.673z"/>
			<path fill="#4A3A87" d="M10.066,28.138h7.239c0.421,0,0.777-0.268,0.915-0.641c-1.083-0.229-2.079-0.688-2.947-1.314h-5.208
				c-0.541,0-0.979,0.437-0.979,0.978S9.525,28.138,10.066,28.138z"/>
			<path fill="#4A3A87" d="M17.305,28.647h-7.239c-0.541,0-0.979,0.438-0.979,0.979c0,0.539,0.438,0.977,0.979,0.977h7.239
				c0.541,0,0.979-0.438,0.979-0.979C18.284,29.085,17.846,28.647,17.305,28.647z"/>
			<path fill="#4A3A87" d="M19.845,12.999c-3.775,0-6.845,3.07-6.845,6.845c0,3.776,3.07,6.846,6.846,6.846
				c3.774,0,6.844-3.069,6.844-6.846C26.689,16.069,23.619,12.999,19.845,12.999z M19.845,24.735c-2.697,0-4.89-2.192-4.89-4.891
				c0-2.695,2.192-4.89,4.89-4.89c2.696,0,4.889,2.193,4.889,4.89C24.734,22.542,22.541,24.735,19.845,24.735z"/>
			<path fill="#4A3A87" d="M20.13,19.184v-1.688c0.985,0.018,0.975,0.969,1.553,0.969c0.303,0,0.562-0.203,0.562-0.551
				c0-0.871-1.423-1.308-2.116-1.325v-0.475c0-0.151-0.116-0.303-0.27-0.303c-0.149,0-0.265,0.15-0.265,0.303v0.475
				c-1.112,0.034-2.117,0.659-2.117,1.867c0,0.986,0.798,1.564,2.117,1.805v1.859c-1.479-0.062-0.704-1.289-1.7-1.289
				c-0.335,0-0.551,0.204-0.551,0.56c0,0.703,0.748,1.603,2.251,1.639v0.55c0,0.151,0.114,0.303,0.265,0.303
				c0.152,0,0.27-0.15,0.27-0.303v-0.55c1.325-0.08,2.213-0.688,2.213-1.878C22.344,19.78,21.305,19.434,20.13,19.184z
				 M19.597,19.086c-0.667-0.134-0.998-0.392-0.998-0.836c0-0.383,0.393-0.738,0.998-0.757V19.086z M20.13,22.118v-1.761
				c0.479,0.105,1.094,0.283,1.094,0.888C21.225,21.833,20.665,22.083,20.13,22.118z"/>
		</g>
	</g>
</g>
</svg>
