<?xml version="1.0" encoding="utf-8"?>
<!-- Generator: Adobe Illustrator 16.0.4, SVG Export Plug-In . SVG Version: 6.00 Build 0)  -->
<!DOCTYPE svg PUBLIC "-//W3C//DTD SVG 1.1//EN" "http://www.w3.org/Graphics/SVG/1.1/DTD/svg11.dtd">
<svg version="1.1" id="Layer_1" xmlns="http://www.w3.org/2000/svg" xmlns:xlink="http://www.w3.org/1999/xlink" x="0px" y="0px"
	 width="39.689px" height="39.689px" viewBox="0 0 39.689 39.689" enable-background="new 0 0 39.689 39.689" xml:space="preserve">
<circle fill="#FFACFF" cx="19.845" cy="19.844" r="19.843"/>
<g>
	<g>
		<path fill="#4A3A87" d="M15.82,13.932c0-2.143,1.941-4.025,4.025-4.025s4.026,1.884,4.026,4.025v3.221
			c0,2.431-2.058,4.83-4.026,4.83s-4.025-2.399-4.025-4.83V13.932z M14.21,13.932v3.221c0,3.269,2.717,6.441,5.635,6.441
			s5.635-3.174,5.635-6.441v-3.221c0-3.043-2.674-5.635-5.635-5.635S14.21,10.889,14.21,13.932z"/>
		<path fill="#4A3A87" d="M24.15,18.008c-1.125,0.414-2.83,0.756-4.305,0.756c-0.444,0-0.805,0.359-0.805,0.805
			c0,0.443,0.359,0.806,0.805,0.806c1.676,0,3.569-0.379,4.862-0.855c0.418-0.151,0.631-0.615,0.477-1.033
			C25.031,18.067,24.568,17.854,24.15,18.008z"/>
		<path fill="#4A3A87" d="M15.096,18.039c-0.009-0.052-0.017-0.103-0.022-0.151c-0.034-0.245-0.059-0.489-0.059-0.735v-2.415v-0.806
			c0-0.273,0.032-0.543,0.08-0.805h-0.101c-0.876,0-1.589,0.712-1.589,1.588v2.46c0,0.876,0.713,1.587,1.589,1.587h0.27l0,0
			C15.19,18.525,15.137,18.283,15.096,18.039"/>
		<path fill="#4A3A87" d="M24.699,13.127h-0.103c0.047,0.262,0.078,0.531,0.078,0.805v0.806v2.415c0,0.246-0.023,0.49-0.057,0.735
			c-0.009,0.051-0.017,0.101-0.023,0.151c-0.041,0.244-0.094,0.485-0.166,0.725l0,0h0.271c0.875,0,1.588-0.713,1.588-1.59v-2.459
			C26.287,13.84,25.574,13.127,24.699,13.127"/>
		<path fill="#4A3A87" d="M23.16,21.184l-0.095-0.006h-0.922c-0.166,0-0.33,0.053-0.467,0.149c-0.447,0.317-0.918,0.523-1.382,0.607
			c-0.191,0.033-0.328,0.047-0.45,0.047c-0.121,0-0.259-0.014-0.427-0.042c-0.487-0.089-0.958-0.295-1.405-0.612
			c-0.137-0.098-0.299-0.149-0.467-0.149h-0.922l-0.096,0.006c-1.496,0.18-3.273,0.825-5.171,1.823
			c-0.722,0.38-1.175,1.13-1.175,1.946v1.86c0,0.445,0.36,0.806,0.805,0.806H28.7c0.444,0,0.805-0.359,0.805-0.806v-1.86
			c0-0.816-0.451-1.566-1.174-1.946C26.436,22.009,24.658,21.363,23.16,21.184z M11.794,26.01v-1.057c0-0.22,0.122-0.42,0.313-0.521
			c1.717-0.903,3.304-1.483,4.565-1.643H17.3c0.573,0.369,1.186,0.619,1.811,0.73c0.007,0.001,0.007,0.001,0.039,0.007
			c0.246,0.043,0.472,0.066,0.695,0.066s0.447-0.023,0.701-0.066c0.021-0.004,0.021-0.004,0.087-0.018
			c0.58-0.104,1.187-0.354,1.757-0.721h0.627c1.262,0.158,2.849,0.738,4.564,1.643c0.192,0.103,0.313,0.303,0.313,0.521v1.057
			L11.794,26.01L11.794,26.01z"/>
	</g>
</g>
</svg>
