<?xml version="1.0" encoding="utf-8"?>
<!-- Generator: Adobe Illustrator 16.0.4, SVG Export Plug-In . SVG Version: 6.00 Build 0)  -->
<!DOCTYPE svg PUBLIC "-//W3C//DTD SVG 1.1//EN" "http://www.w3.org/Graphics/SVG/1.1/DTD/svg11.dtd">
<svg version="1.1" id="Layer_1" xmlns="http://www.w3.org/2000/svg" xmlns:xlink="http://www.w3.org/1999/xlink" x="0px" y="0px"
	 width="39.689px" height="39.689px" viewBox="0 0 39.689 39.689" enable-background="new 0 0 39.689 39.689" xml:space="preserve">
<circle fill="#FFACFF" cx="19.845" cy="19.844" r="19.843"/>
<g>
	
		<path fill="none" stroke="#4A3A87" stroke-width="1.4173" stroke-linecap="round" stroke-linejoin="round" stroke-miterlimit="10" d="
		M19.953,20.799c0,0,0.995-2.782,2.299-4.087c0.942-0.942,2.018-1.428,3.338-1.428c2.746,0,4.971,2.225,4.971,4.97
		c0,2.746-2.225,4.97-4.971,4.97c-1.15,0-2.211-0.391-3.053-1.048"/>
	
		<path fill="none" stroke="#4A3A87" stroke-width="1.4173" stroke-linecap="round" stroke-linejoin="round" stroke-miterlimit="10" d="
		M19.996,20.671c0,0-0.687,1.82-1.99,3.123c-0.942,0.941-2.018,1.43-3.338,1.43c-2.745,0-4.97-2.225-4.97-4.97s2.225-4.97,4.97-4.97
		c0.117,0,2.666,0.003,2.781,0.011"/>
	
		<polyline fill="none" stroke="#4A3A87" stroke-width="1.4173" stroke-linecap="round" stroke-linejoin="round" stroke-miterlimit="10" points="
		15.701,12.455 18.381,15.284 15.701,18.112 	"/>
</g>
</svg>
