<?xml version="1.0" encoding="utf-8"?>
<!-- Generator: Adobe Illustrator 16.0.4, SVG Export Plug-In . SVG Version: 6.00 Build 0)  -->
<!DOCTYPE svg PUBLIC "-//W3C//DTD SVG 1.1//EN" "http://www.w3.org/Graphics/SVG/1.1/DTD/svg11.dtd">
<svg version="1.1" id="Layer_1" xmlns="http://www.w3.org/2000/svg" xmlns:xlink="http://www.w3.org/1999/xlink" x="0px" y="0px"
	 width="39.689px" height="39.689px" viewBox="0 0 39.689 39.689" enable-background="new 0 0 39.689 39.689" xml:space="preserve">
<circle fill="#FFACFF" cx="19.845" cy="19.844" r="19.843"/>
<g>
	<g>
		
			<path fill="none" stroke="#4A3A87" stroke-width="1.4173" stroke-linecap="round" stroke-linejoin="round" stroke-miterlimit="10" d="
			M23.771,12.88c-0.633-0.374-1.299-0.65-1.998-0.825l-0.312-1.853c-0.062-0.343-0.355-0.59-0.7-0.59h-0.922h-0.923
			c-0.341,0-0.639,0.248-0.698,0.594l-0.313,1.853c-0.708,0.175-1.395,0.459-2.039,0.857l-1.516-1.078
			c-0.286-0.198-0.67-0.169-0.917,0.078l-0.65,0.657l-0.658,0.654c-0.244,0.244-0.276,0.633-0.078,0.918l1.096,1.543
			c-0.374,0.634-0.637,1.312-0.815,1.999l-1.842,0.293c-0.341,0.062-0.589,0.354-0.589,0.699v0.922v0.922
			c0,0.341,0.249,0.639,0.593,0.698l1.865,0.314c0.183,0.688,0.464,1.358,0.84,1.985l-1.075,1.517
			c-0.199,0.282-0.17,0.67,0.077,0.918l0.658,0.648l0.658,0.655c0.245,0.242,0.633,0.275,0.919,0.076l1.543-1.097
			c0.635,0.373,1.313,0.638,2,0.816l0.31,1.832c0.061,0.342,0.354,0.589,0.698,0.589h0.922h0.924c0.341,0,0.638-0.247,0.698-0.593
			l0.312-1.865c0.674-0.178,1.336-0.451,1.945-0.812l1.528,1.09c0.283,0.198,0.666,0.171,0.918-0.077l0.654-0.658l0.654-0.658
			c0.244-0.243,0.274-0.635,0.075-0.918l-1.09-1.523c0.375-0.634,0.65-1.3,0.826-1.999l1.853-0.312
			c0.342-0.061,0.59-0.354,0.59-0.699v-0.923l-0.008-0.918c0-0.341-0.248-0.638-0.593-0.697l-1.854-0.313"/>
		
			<line fill="none" stroke="#4A3A87" stroke-width="1.4173" stroke-linecap="round" stroke-linejoin="round" stroke-miterlimit="10" x1="16.78" y1="17.94" x2="19.742" y2="21.748"/>
		
			<line fill="none" stroke="#4A3A87" stroke-width="1.4173" stroke-linecap="round" stroke-linejoin="round" stroke-miterlimit="10" x1="19.742" y1="21.748" x2="27.521" y2="13.156"/>
	</g>
</g>
</svg>
