<?xml version="1.0" encoding="utf-8"?>
<!-- Generator: Adobe Illustrator 16.0.4, SVG Export Plug-In . SVG Version: 6.00 Build 0)  -->
<!DOCTYPE svg PUBLIC "-//W3C//DTD SVG 1.1//EN" "http://www.w3.org/Graphics/SVG/1.1/DTD/svg11.dtd">
<svg version="1.1" id="Layer_1" xmlns="http://www.w3.org/2000/svg" xmlns:xlink="http://www.w3.org/1999/xlink" x="0px" y="0px"
	 width="39.69px" height="39.69px" viewBox="0 0 39.69 39.69" enable-background="new 0 0 39.69 39.69" xml:space="preserve">
<g>
	<circle fill="#FFACFF" cx="19.845" cy="19.845" r="19.843"/>
	<g>
		<g>
			<g>
				<path fill="#4A3A87" stroke="#4A3A87" stroke-width="0.7087" stroke-miterlimit="10" d="M23.626,31.45
					c-0.812,0-1.794-0.205-2.871-0.611c-2.366-0.892-4.94-2.654-7.247-4.962c-2.309-2.308-4.07-4.881-4.963-7.247
					c-0.811-2.151-0.813-3.916-0.006-4.723c0.116-0.117,0.234-0.242,0.356-0.37c0.738-0.775,1.586-1.655,2.676-1.608
					c0.761,0.031,1.499,0.504,2.255,1.442c2.229,2.776,1.225,3.765,0.061,4.911l-0.206,0.204c-0.19,0.19-0.551,1.072,2.797,4.419
					c1.092,1.093,2.024,1.894,2.77,2.376c0.47,0.307,1.307,0.767,1.651,0.422l0.207-0.209c1.146-1.162,2.135-2.164,4.907,0.065
					c0.94,0.755,1.412,1.491,1.443,2.255c0.045,1.104-0.834,1.938-1.609,2.675c-0.127,0.122-0.252,0.24-0.369,0.356
					C25.076,31.247,24.436,31.45,23.626,31.45z M11.494,12.584c-0.784,0-1.494,0.746-2.121,1.406
					c-0.126,0.131-0.25,0.26-0.369,0.381c-0.601,0.6-0.54,2.182,0.156,4.027c0.86,2.28,2.569,4.771,4.812,7.015
					c2.243,2.242,4.733,3.952,7.014,4.812c1.848,0.697,3.426,0.757,4.028,0.155c0.12-0.12,0.249-0.242,0.38-0.367
					c0.676-0.642,1.439-1.367,1.406-2.173c-0.022-0.554-0.426-1.149-1.199-1.771c-2.311-1.856-2.956-1.201-4.027-0.114l-0.211,0.212
					c-0.511,0.512-1.344,0.398-2.472-0.334c-0.782-0.51-1.75-1.34-2.875-2.465c-2.778-2.777-3.667-4.477-2.798-5.348l0.209-0.207
					c1.089-1.072,1.747-1.718-0.111-4.03c-0.622-0.771-1.217-1.175-1.771-1.198C11.527,12.584,11.51,12.584,11.494,12.584z"/>
			</g>
			<path fill="#4A3A87" stroke="#4A3A87" stroke-width="0.7087" stroke-miterlimit="10" d="M25.807,26.144
				c-0.101,0-0.2-0.047-0.265-0.135c-0.106-0.148-0.074-0.352,0.071-0.459c0.68-0.497,1.285-1.09,1.798-1.762
				c1.155-1.52,1.767-3.334,1.767-5.249c0-4.783-3.892-8.675-8.675-8.675c-1.449,0-2.884,0.365-4.148,1.054
				c-0.159,0.087-0.358,0.029-0.446-0.131c-0.087-0.159-0.028-0.359,0.131-0.445c1.361-0.742,2.904-1.135,4.462-1.135
				c5.146,0,9.331,4.187,9.331,9.332c0,2.06-0.656,4.01-1.901,5.647c-0.55,0.723-1.2,1.359-1.932,1.894
				C25.943,26.122,25.875,26.144,25.807,26.144z"/>
			<g>
				<path fill="#4A3A87" stroke="#4A3A87" stroke-width="0.2835" stroke-miterlimit="10" d="M18.393,14.99
					c0.391-0.118,0.767-0.191,1.172-0.191c1.047,0,1.689,0.523,1.689,1.416c0,0.494-0.274,0.87-0.856,1.253l-1.172,0.789
					c-0.361,0.244-0.523,0.627-0.523,1.04h2.396c0.053,0,0.082,0.03,0.082,0.081v0.568c0,0.051-0.029,0.081-0.082,0.081h-3.148
					c-0.051,0-0.081-0.03-0.081-0.081v-0.354c0-0.9,0.294-1.548,0.958-1.984l1.165-0.773c0.295-0.2,0.427-0.392,0.427-0.62
					c0-0.414-0.324-0.679-0.855-0.679c-0.332,0-0.648,0.06-0.929,0.154l-0.428,0.141c-0.043,0.014-0.081-0.008-0.096-0.053
					l-0.184-0.553c-0.023-0.044,0-0.081,0.051-0.095L18.393,14.99z"/>
				<path fill="#4A3A87" stroke="#4A3A87" stroke-width="0.2835" stroke-miterlimit="10" d="M25.805,18.625
					c0,0.052-0.029,0.081-0.08,0.081h-0.457v1.239c0,0.052-0.029,0.081-0.082,0.081h-0.662c-0.053,0-0.082-0.029-0.082-0.081v-1.239
					h-2.471c-0.051,0-0.08-0.029-0.08-0.081v-0.62c0-0.044,0.006-0.073,0.037-0.103c0.184-0.214,0.346-0.413,0.523-0.656
					l1.363-1.755c0.141-0.185,0.25-0.361,0.377-0.568c0.029-0.037,0.059-0.051,0.102-0.051h0.893c0.052,0,0.081,0.03,0.081,0.082
					v3.023h0.457c0.052,0,0.081,0.029,0.081,0.082V18.625L25.805,18.625z M24.441,16.701c0-0.236,0.014-0.472,0.045-0.723
					c0.014-0.089-0.053-0.111-0.111-0.03l-1.195,1.52c-0.096,0.132-0.234,0.302-0.338,0.398c-0.053,0.059-0.023,0.11,0.037,0.11
					h1.562V16.701z"/>
			</g>
		</g>
	</g>
</g>
</svg>
