<?xml version="1.0" encoding="utf-8"?>
<!-- Generator: Adobe Illustrator 16.0.4, SVG Export Plug-In . SVG Version: 6.00 Build 0)  -->
<!DOCTYPE svg PUBLIC "-//W3C//DTD SVG 1.1//EN"
		"http://www.w3.org/Graphics/SVG/1.1/DTD/svg11.dtd"
		>
<svg version="1.1" id="Layer_1" xmlns="http://www.w3.org/2000/svg" xmlns:xlink="http://www.w3.org/1999/xlink" x="0px" y="0px"
	 width="39.69px" height="39.69px" viewBox="0 0 39.69 39.69" enable-background="new 0 0 39.69 39.69" xml:space="preserve">
<circle fill="#FFACFF" cx="19.845" cy="19.845" r="19.843"/>
<g>
	<g>
		<g>
			<path fill="#4A3A87" d="M28.618,16.563h-2.144v-3.026c0-0.97-0.789-1.759-1.759-1.759H11.068c-0.97,0-1.759,0.789-1.759,1.759
				v7.892c0,0.97,0.789,1.759,1.759,1.759h2.144v3.026c0,0.97,0.789,1.759,1.759,1.759h13.647c0.97,0,1.759-0.789,1.759-1.759
				v-4.125v-3.767C30.377,17.353,29.588,16.563,28.618,16.563z M10.314,13.537c0-0.416,0.338-0.754,0.754-0.754h13.647
				c0.415,0,0.754,0.338,0.754,0.754v0.701H10.314V13.537z M13.212,18.322v3.86h-2.144c-0.416,0-0.754-0.339-0.754-0.754v-3.857
				h3.066C13.273,17.799,13.212,18.054,13.212,18.322z M10.314,16.566v-1.322H25.47v1.319H14.971c-0.034,0-0.068,0.001-0.101,0.003
				H10.314z M28.618,26.968H14.971c-0.416,0-0.754-0.338-0.754-0.754v-7.892c0-0.396,0.305-0.72,0.692-0.751h11.062
				c0.019,0,0.037-0.001,0.055-0.003h2.592c0.416,0,0.754,0.338,0.754,0.754v7.892l0,0C29.372,26.63,29.034,26.968,28.618,26.968z"
				/>
		</g>
	</g>
	<g>
		<g>
			<path fill="#4A3A87" d="M23.309,19.846c-0.572,0-1.098,0.199-1.512,0.531c-0.426-0.342-0.956-0.531-1.516-0.531
				c-1.336,0-2.423,1.086-2.423,2.422s1.087,2.423,2.423,2.423c0.561,0,1.09-0.189,1.516-0.532c0.414,0.333,0.939,0.532,1.512,0.532
				c1.336,0,2.422-1.087,2.422-2.423C25.73,20.933,24.645,19.846,23.309,19.846z M21.158,23.381
				c-0.247,0.196-0.554,0.305-0.877,0.305c-0.782,0-1.418-0.636-1.418-1.418c0-0.781,0.636-1.417,1.418-1.417
				c0.323,0,0.63,0.108,0.877,0.304c-0.174,0.334-0.272,0.713-0.272,1.113C20.886,22.669,20.984,23.048,21.158,23.381z
				 M23.309,23.686c-0.781,0-1.418-0.636-1.418-1.418c0-0.781,0.637-1.417,1.418-1.417s1.417,0.636,1.417,1.417
				C24.726,23.05,24.09,23.686,23.309,23.686z"/>
		</g>
	</g>
</g>
</svg>
