<?xml version="1.0" encoding="utf-8"?>
<!-- Generator: Adobe Illustrator 16.0.4, SVG Export Plug-In . SVG Version: 6.00 Build 0)  -->
<!DOCTYPE svg PUBLIC "-//W3C//DTD SVG 1.1//EN" "http://www.w3.org/Graphics/SVG/1.1/DTD/svg11.dtd">
<svg version="1.1" id="Layer_1" xmlns="http://www.w3.org/2000/svg" xmlns:xlink="http://www.w3.org/1999/xlink" x="0px" y="0px"
	 width="39.69px" height="39.69px" viewBox="0 0 39.69 39.69" enable-background="new 0 0 39.69 39.69" xml:space="preserve">
<g>
	<circle fill="#FFACFF" cx="19.845" cy="19.845" r="19.842"/>
	<g>
		<path fill="#4A3A87" d="M27.018,20.636c-0.836-0.963-1.991-1.592-3.252-1.771l-2.897-0.455v-5.055c0-1.2-0.977-2.177-2.177-2.177
			h-0.032c-1.201,0-2.178,0.977-2.178,2.177v8.118l-2.994-1.283c-0.602-0.258-1.287-0.196-1.834,0.164s-0.873,0.966-0.873,1.62
			v0.027c0,0.555,0.238,1.083,0.652,1.451l5.049,4.49v2.182c0,0.312,0.253,0.564,0.564,0.564c0.312,0,0.564-0.253,0.564-0.564
			v-2.436c0-0.16-0.068-0.314-0.189-0.422l-5.238-4.658c-0.174-0.154-0.273-0.375-0.273-0.607v-0.027
			c0-0.277,0.134-0.525,0.365-0.678c0.232-0.153,0.513-0.178,0.768-0.068l3.781,1.619c0.035,0.016,0.071,0.027,0.109,0.035
			c0.057,0.012,0.113,0.014,0.17,0.009c0.006-0.001,0.012-0.002,0.018-0.003c0.012-0.002,0.023-0.003,0.035-0.006
			c0.01-0.002,0.02-0.004,0.029-0.006c0.008-0.002,0.016-0.004,0.023-0.006c0.012-0.004,0.021-0.008,0.033-0.012
			c0.006-0.002,0.012-0.005,0.018-0.008c0.011-0.004,0.021-0.009,0.031-0.014c0.006-0.002,0.013-0.006,0.019-0.009
			c0.009-0.005,0.019-0.011,0.026-0.016c0.008-0.004,0.015-0.008,0.021-0.013c0.008-0.005,0.014-0.01,0.021-0.016
			s0.016-0.011,0.023-0.017c0.006-0.005,0.012-0.011,0.018-0.015c0.008-0.008,0.016-0.015,0.023-0.022
			c0.005-0.005,0.01-0.011,0.014-0.016c0.008-0.008,0.016-0.016,0.023-0.024c0.004-0.006,0.01-0.014,0.015-0.02
			c0.006-0.008,0.012-0.016,0.017-0.023c0.008-0.01,0.014-0.021,0.02-0.031c0.004-0.005,0.007-0.01,0.01-0.015
			c0.027-0.05,0.047-0.103,0.059-0.159c0.008-0.037,0.012-0.076,0.012-0.113v-8.975c0-0.578,0.471-1.049,1.049-1.049h0.031
			c0.578,0,1.049,0.471,1.049,1.049v5.42c0,0.021,0.002,0.041,0.004,0.062c-0.029,0.295,0.176,0.566,0.473,0.613l3.378,0.529
			c0.002,0,0.006,0,0.008,0.001c2.043,0.29,3.584,2.065,3.584,4.129v0.058c0,0.955-0.233,1.908-0.674,2.755l-1.531,2.941
			c-0.145,0.276-0.037,0.617,0.24,0.761c0.082,0.043,0.172,0.064,0.26,0.064c0.203,0,0.4-0.111,0.501-0.305l1.53-2.941
			c0.525-1.008,0.803-2.14,0.803-3.275v-0.058C28.314,22.833,27.854,21.601,27.018,20.636z"/>
		<path fill="#4A3A87" d="M18.675,9.703c0.312,0,0.564-0.253,0.564-0.563V7.424c0-0.312-0.252-0.563-0.564-0.563
			c-0.312,0-0.564,0.252-0.564,0.563V9.14C18.11,9.45,18.363,9.703,18.675,9.703z"/>
		<path fill="#4A3A87" d="M22.17,14.302c0,0.312,0.254,0.564,0.564,0.564h1.715c0.312,0,0.564-0.253,0.564-0.564
			c0-0.312-0.252-0.564-0.564-0.564h-1.715C22.424,13.737,22.17,13.99,22.17,14.302z"/>
		<path fill="#4A3A87" d="M22.287,11.108c0.145,0,0.289-0.055,0.4-0.164l1.212-1.213c0.22-0.221,0.22-0.578,0-0.799
			s-0.577-0.221-0.798,0l-1.213,1.213c-0.221,0.221-0.221,0.578,0,0.799C21.998,11.054,22.143,11.108,22.287,11.108z"/>
		<path fill="#4A3A87" d="M14.22,10.944c0.109,0.109,0.254,0.164,0.398,0.164s0.289-0.055,0.399-0.164
			c0.22-0.221,0.22-0.578,0-0.799l-1.213-1.213c-0.22-0.221-0.577-0.221-0.798,0s-0.221,0.578,0,0.799L14.22,10.944z"/>
		<path fill="#4A3A87" d="M12.481,14.866h1.715c0.311,0,0.564-0.253,0.564-0.564c0-0.312-0.254-0.564-0.564-0.564h-1.715
			c-0.312,0-0.564,0.252-0.564,0.564C11.917,14.613,12.169,14.866,12.481,14.866z"/>
	</g>
</g>
</svg>
