<?xml version="1.0" encoding="utf-8"?>
<!-- Generator: Adobe Illustrator 16.0.4, SVG Export Plug-In . SVG Version: 6.00 Build 0)  -->
<!DOCTYPE svg PUBLIC "-//W3C//DTD SVG 1.1//EN" "http://www.w3.org/Graphics/SVG/1.1/DTD/svg11.dtd">
<svg version="1.1" id="Layer_1" xmlns="http://www.w3.org/2000/svg" xmlns:xlink="http://www.w3.org/1999/xlink" x="0px" y="0px"
	 width="39.69px" height="39.69px" viewBox="0 0 39.69 39.69" enable-background="new 0 0 39.69 39.69" xml:space="preserve">
<circle fill="#FFACFF" cx="19.845" cy="19.845" r="19.843"/>
<g>
	
		<path fill="none" stroke="#4A3A87" stroke-width="1.2756" stroke-linecap="round" stroke-linejoin="round" stroke-miterlimit="10" d="
		M27.664,12.977c-1.881-1.961-4.527-3.182-7.458-3.182c-5.707,0-10.333,4.626-10.333,10.333c0,5.707,4.626,10.332,10.333,10.332
		c3.893,0.001,7.283-2.152,9.044-5.332"/>
	
		<path fill="none" stroke="#4A3A87" stroke-width="1.2756" stroke-linecap="round" stroke-linejoin="round" stroke-miterlimit="10" d="
		M23.279,16.846c-0.863-0.9-2.078-1.46-3.422-1.46c-2.619,0-4.742,2.123-4.742,4.743c0,2.619,2.123,4.742,4.742,4.742
		c1.787,0,3.342-0.988,4.151-2.448"/>
	
		<polyline fill="none" stroke="#4A3A87" stroke-width="1.2756" stroke-linecap="round" stroke-linejoin="round" stroke-miterlimit="10" points="
		27.721,9.795 27.934,13.24 24.504,13.638 	"/>
	
		<line fill="none" stroke="#4A3A87" stroke-width="1.2756" stroke-linecap="round" stroke-linejoin="round" stroke-miterlimit="10" x1="13.673" y1="19.021" x2="19.818" y2="19.021"/>
	
		<line fill="none" stroke="#4A3A87" stroke-width="1.2756" stroke-linecap="round" stroke-linejoin="round" stroke-miterlimit="10" x1="13.673" y1="21.568" x2="19.818" y2="21.568"/>
</g>
</svg>
