<?xml version="1.0" encoding="utf-8"?>
<!-- Generator: Adobe Illustrator 16.0.4, SVG Export Plug-In . SVG Version: 6.00 Build 0)  -->
<!DOCTYPE svg PUBLIC "-//W3C//DTD SVG 1.1//EN" "http://www.w3.org/Graphics/SVG/1.1/DTD/svg11.dtd">
<svg version="1.1" id="Layer_1" xmlns="http://www.w3.org/2000/svg" xmlns:xlink="http://www.w3.org/1999/xlink" x="0px" y="0px"
	 width="39.69px" height="39.69px" viewBox="0 0 39.69 39.69" enable-background="new 0 0 39.69 39.69" xml:space="preserve">
<circle fill="#FFACFF" cx="19.846" cy="19.844" r="19.843"/>
<g>
	<g>
		<path fill="#4A3A87" d="M13.999,13.901c3.186-2.882,7.953-2.926,11.184-0.296l-2.561,0.097c-0.33,0.014-0.586,0.287-0.572,0.617
			c0.013,0.321,0.277,0.573,0.594,0.573c0.01,0,0.014,0,0.023,0l3.93-0.146c0.322-0.012,0.573-0.273,0.573-0.595v-0.043
			c0-0.01,0-0.014,0-0.023v-0.003l0,0l-0.146-3.888c-0.014-0.329-0.291-0.585-0.617-0.572c-0.33,0.014-0.586,0.287-0.572,0.617
			l0.092,2.437c-1.6-1.309-3.568-2.066-5.675-2.173c-2.609-0.132-5.116,0.764-7.051,2.517c-2.661,2.41-3.79,6.076-2.943,9.567
			c0.066,0.271,0.308,0.453,0.577,0.453c0.049,0,0.093-0.004,0.141-0.018c0.317-0.08,0.516-0.402,0.437-0.719
			C10.672,19.236,11.66,16.015,13.999,13.901z"/>
		<path fill="#4A3A87" d="M29.435,18.236c-0.08-0.316-0.4-0.515-0.719-0.437c-0.316,0.08-0.516,0.402-0.436,0.719
			c0.744,3.068-0.248,6.289-2.587,8.402c-1.644,1.486-3.706,2.219-5.759,2.219c-1.961,0-3.917-0.666-5.495-1.979l2.591-0.234
			c0.326-0.031,0.568-0.318,0.538-0.648c-0.031-0.33-0.318-0.568-0.647-0.537l-3.918,0.354c-0.326,0.029-0.568,0.316-0.538,0.646
			l0.353,3.918c0.026,0.309,0.287,0.541,0.59,0.541c0.019,0,0.036,0,0.053-0.004c0.326-0.031,0.568-0.318,0.538-0.646l-0.212-2.385
			c1.6,1.295,3.561,2.049,5.653,2.154c0.168,0.01,0.335,0.014,0.499,0.014c2.428,0,4.736-0.891,6.552-2.529
			C29.152,25.393,30.28,21.73,29.435,18.236z"/>
	</g>
</g>
</svg>
