<?xml version="1.0" encoding="utf-8"?>
<!-- Generator: Adobe Illustrator 16.0.4, SVG Export Plug-In . SVG Version: 6.00 Build 0)  -->
<!DOCTYPE svg PUBLIC "-//W3C//DTD SVG 1.1//EN" "http://www.w3.org/Graphics/SVG/1.1/DTD/svg11.dtd">
<svg version="1.1" id="Layer_1" xmlns="http://www.w3.org/2000/svg" xmlns:xlink="http://www.w3.org/1999/xlink" x="0px" y="0px"
	 width="39.69px" height="39.69px" viewBox="0 0 39.69 39.69" enable-background="new 0 0 39.69 39.69" xml:space="preserve">
<circle fill="#FFACFF" cx="19.845" cy="19.845" r="19.843"/>
<g>
	<g>
		<g>
			<path fill="#4A3A87" d="M25.897,15.856v-2.085c0-2.97-2.667-5.386-5.943-5.386c-3.277,0-5.943,2.416-5.943,5.386
				c0,0.206,0.166,0.372,0.371,0.372c0.205,0,0.372-0.166,0.372-0.372c0-2.56,2.332-4.643,5.2-4.643s5.2,2.083,5.2,4.643v2.043
				H14.467c-1.481,0-2.685,1.205-2.685,2.685v7.259c0,1.481,1.204,2.686,2.685,2.686h10.974c1.48,0,2.686-1.204,2.686-2.686V18.5
				C28.127,17.175,27.16,16.075,25.897,15.856z M27.384,25.759c0,1.071-0.872,1.942-1.942,1.942H14.467
				c-1.071,0-1.942-0.871-1.942-1.942V18.5c0-1.071,0.872-1.942,1.942-1.942h10.974c1.07,0,1.942,0.871,1.942,1.942V25.759z"/>
			<path fill="#4A3A87" d="M25.441,28.799H14.467c-1.676,0-3.04-1.364-3.04-3.04V18.5c0-1.676,1.364-3.04,3.04-3.04H24.8v-1.689
				c0-2.365-2.174-4.289-4.846-4.289s-4.846,1.924-4.846,4.289c0,0.4-0.326,0.726-0.726,0.726c-0.4,0-0.726-0.326-0.726-0.726
				c0-3.165,2.825-5.74,6.297-5.74c3.473,0,6.298,2.575,6.298,5.74v1.801c1.309,0.36,2.229,1.547,2.229,2.927v7.259
				C28.481,27.435,27.117,28.799,25.441,28.799z M14.467,16.169c-1.285,0-2.331,1.045-2.331,2.331v7.259
				c0,1.285,1.045,2.331,2.331,2.331h10.974c1.285,0,2.331-1.046,2.331-2.331V18.5c0-1.136-0.813-2.101-1.936-2.294l-0.294-0.051
				v-2.383c0-2.774-2.507-5.031-5.589-5.031c-3.082,0-5.588,2.257-5.588,5.031c0.034-2.755,2.525-4.998,5.588-4.998
				c3.062,0,5.555,2.242,5.555,4.998v2.398H14.467z M25.441,28.056H14.467c-1.267,0-2.297-1.03-2.297-2.297V18.5
				c0-1.266,1.03-2.296,2.297-2.296h10.974c1.267,0,2.297,1.03,2.297,2.296v7.259C27.738,27.025,26.708,28.056,25.441,28.056z
				 M14.467,16.913c-0.875,0-1.588,0.712-1.588,1.587v7.259c0,0.876,0.712,1.588,1.588,1.588h10.974
				c0.876,0,1.588-0.712,1.588-1.588V18.5c0-0.875-0.712-1.587-1.588-1.587H14.467z"/>
		</g>
		<g>
			<path fill="#4A3A87" d="M19.954,19.354c-0.819,0-1.486,0.666-1.486,1.486v2.229c0,0.82,0.667,1.486,1.486,1.486
				s1.486-0.666,1.486-1.486V20.84C21.44,20.02,20.773,19.354,19.954,19.354z M20.697,23.068c0,0.41-0.334,0.743-0.743,0.743
				c-0.41,0-0.743-0.333-0.743-0.743V20.84c0-0.41,0.333-0.743,0.743-0.743c0.409,0,0.743,0.333,0.743,0.743V23.068z"/>
			<path fill="#4A3A87" d="M19.954,24.909c-1.015,0-1.84-0.826-1.84-1.841V20.84c0-1.015,0.826-1.84,1.84-1.84
				c1.015,0,1.841,0.826,1.841,1.84v2.229C21.795,24.083,20.969,24.909,19.954,24.909z M19.954,19.708
				c-0.624,0-1.131,0.507-1.131,1.131v2.229c0,0.624,0.507,1.132,1.131,1.132s1.132-0.508,1.132-1.132V20.84
				C21.086,20.216,20.578,19.708,19.954,19.708z M19.954,24.166c-0.605,0-1.097-0.492-1.097-1.098V20.84
				c0-0.605,0.492-1.098,1.097-1.098s1.098,0.493,1.098,1.098v2.229C21.052,23.674,20.559,24.166,19.954,24.166z M19.954,20.451
				c-0.214,0-0.388,0.174-0.388,0.389v2.229c0,0.215,0.174,0.389,0.388,0.389s0.389-0.174,0.389-0.389V20.84
				C20.343,20.625,20.168,20.451,19.954,20.451z"/>
		</g>
	</g>
</g>
<rect x="13.657" y="13.771" fill="#4A3A87" width="1.447" height="2.432"/>
</svg>
