<?xml version="1.0" encoding="utf-8"?>
<!-- Generator: Adobe Illustrator 16.0.4, SVG Export Plug-In . SVG Version: 6.00 Build 0)  -->
<!DOCTYPE svg PUBLIC "-//W3C//DTD SVG 1.1//EN" "http://www.w3.org/Graphics/SVG/1.1/DTD/svg11.dtd">
<svg version="1.1" id="Layer_1" xmlns="http://www.w3.org/2000/svg" xmlns:xlink="http://www.w3.org/1999/xlink" x="0px" y="0px"
	 width="39.69px" height="39.69px" viewBox="0 0 39.69 39.69" enable-background="new 0 0 39.69 39.69" xml:space="preserve">
<circle fill="#FFACFF" cx="19.845" cy="19.845" r="19.843"/>
<g>
	<g>
		<path fill="#4A3A87" d="M25.32,22.759c-0.41-0.428-0.905-0.655-1.43-0.655c-0.52,0-1.018,0.223-1.445,0.65l-1.337,1.332
			c-0.109-0.06-0.219-0.113-0.325-0.169c-0.152-0.076-0.296-0.147-0.419-0.225c-1.251-0.794-2.389-1.83-3.479-3.17
			c-0.528-0.668-0.884-1.231-1.142-1.802c0.347-0.316,0.668-0.646,0.981-0.964c0.118-0.118,0.236-0.241,0.354-0.359
			c0.889-0.888,0.889-2.038,0-2.927l-1.154-1.154c-0.131-0.131-0.266-0.266-0.393-0.401c-0.254-0.262-0.521-0.532-0.795-0.786
			c-0.41-0.406-0.9-0.622-1.416-0.622c-0.516,0-1.015,0.216-1.438,0.622c-0.004,0.004-0.004,0.004-0.008,0.009l-1.438,1.45
			c-0.541,0.541-0.85,1.201-0.917,1.966c-0.102,1.234,0.262,2.385,0.541,3.138c0.685,1.848,1.708,3.56,3.234,5.395
			c1.852,2.211,4.081,3.958,6.626,5.188c0.972,0.461,2.271,1.007,3.721,1.1c0.089,0.005,0.183,0.008,0.267,0.008
			c0.977,0,1.797-0.351,2.439-1.048c0.004-0.009,0.013-0.013,0.018-0.021c0.219-0.266,0.473-0.507,0.739-0.766
			c0.182-0.173,0.368-0.355,0.55-0.545c0.418-0.436,0.639-0.943,0.639-1.464c0-0.524-0.225-1.027-0.651-1.449L25.32,22.759z
			 M26.834,27.211C26.83,27.211,26.83,27.215,26.834,27.211c-0.165,0.178-0.334,0.338-0.516,0.517
			c-0.275,0.261-0.555,0.536-0.816,0.845c-0.428,0.457-0.93,0.673-1.59,0.673c-0.063,0-0.131,0-0.194-0.005
			c-1.255-0.08-2.423-0.57-3.298-0.989c-2.393-1.158-4.495-2.803-6.241-4.889c-1.441-1.736-2.406-3.343-3.044-5.068
			c-0.394-1.053-0.537-1.873-0.474-2.646c0.042-0.495,0.232-0.905,0.583-1.257l1.442-1.441c0.207-0.194,0.427-0.301,0.643-0.301
			c0.266,0,0.482,0.161,0.617,0.296c0.004,0.005,0.009,0.009,0.013,0.014c0.258,0.24,0.503,0.49,0.761,0.757
			c0.131,0.135,0.266,0.271,0.401,0.41l1.154,1.154c0.449,0.448,0.449,0.862,0,1.311c-0.123,0.123-0.241,0.245-0.363,0.363
			c-0.355,0.363-0.694,0.702-1.062,1.032c-0.008,0.009-0.017,0.013-0.021,0.021c-0.364,0.363-0.296,0.718-0.22,0.959
			c0.004,0.013,0.008,0.026,0.013,0.038c0.3,0.728,0.723,1.412,1.365,2.229l0.004,0.004c1.167,1.438,2.397,2.559,3.755,3.416
			c0.173,0.109,0.351,0.199,0.52,0.283c0.152,0.076,0.296,0.148,0.418,0.225c0.017,0.009,0.034,0.021,0.05,0.029
			c0.145,0.072,0.279,0.106,0.419,0.106c0.352,0,0.57-0.22,0.644-0.292l1.445-1.446c0.144-0.144,0.373-0.317,0.639-0.317
			c0.262,0,0.479,0.165,0.609,0.309c0.003,0.005,0.003,0.005,0.008,0.009l2.33,2.329C27.266,26.319,27.266,26.763,26.834,27.211z"/>
		<path fill="#4A3A87" d="M20.314,15.114c1.107,0.186,2.113,0.71,2.917,1.514c0.804,0.803,1.323,1.81,1.514,2.917
			c0.046,0.28,0.287,0.475,0.562,0.475c0.033,0,0.063-0.005,0.097-0.009c0.313-0.052,0.521-0.348,0.47-0.66
			c-0.228-1.34-0.862-2.562-1.831-3.53c-0.968-0.969-2.19-1.604-3.53-1.831c-0.313-0.051-0.604,0.156-0.659,0.466
			C19.798,14.763,20.001,15.063,20.314,15.114z"/>
		<path fill="#4A3A87" d="M29.498,19.186c-0.377-2.207-1.417-4.215-3.016-5.813c-1.598-1.598-3.606-2.639-5.813-3.015
			c-0.309-0.056-0.601,0.157-0.655,0.465c-0.05,0.312,0.157,0.604,0.469,0.66c1.97,0.333,3.767,1.269,5.197,2.692
			c1.43,1.43,2.359,3.227,2.693,5.198c0.047,0.278,0.287,0.473,0.562,0.473c0.033,0,0.062-0.005,0.097-0.009
			C29.342,19.79,29.553,19.495,29.498,19.186z"/>
	</g>
</g>
</svg>
