<?xml version="1.0" encoding="utf-8"?>
<!-- Generator: Adobe Illustrator 16.0.4, SVG Export Plug-In . SVG Version: 6.00 Build 0)  -->
<!DOCTYPE svg PUBLIC "-//W3C//DTD SVG 1.1//EN" "http://www.w3.org/Graphics/SVG/1.1/DTD/svg11.dtd">
<svg version="1.1" id="Layer_1" xmlns="http://www.w3.org/2000/svg" xmlns:xlink="http://www.w3.org/1999/xlink" x="0px" y="0px"
	 width="39.69px" height="39.69px" viewBox="0 0 39.69 39.69" enable-background="new 0 0 39.69 39.69" xml:space="preserve">
<circle fill="#FFACFF" cx="19.846" cy="19.845" r="19.843"/>
<path fill="#4A3A87" d="M26.673,18.24c-0.11-0.272-0.375-0.45-0.668-0.45h-3.106l2.57-7.412c0.109-0.316-0.014-0.667-0.298-0.846
	s-0.653-0.138-0.892,0.099l-11.1,11.032c-0.207,0.205-0.27,0.516-0.158,0.785c0.111,0.271,0.375,0.446,0.667,0.446h3.075
	l-2.798,7.397c-0.12,0.316-0.004,0.672,0.279,0.857c0.121,0.079,0.258,0.118,0.395,0.118c0.183,0,0.364-0.069,0.502-0.203
	l11.367-11.036C26.717,18.823,26.783,18.512,26.673,18.24z M16.457,26.777l2.023-5.349c0.084-0.221,0.054-0.47-0.081-0.664
	c-0.135-0.195-0.356-0.312-0.593-0.312h-2.371l7.651-7.604l-1.881,5.426c-0.076,0.221-0.041,0.465,0.094,0.654
	c0.135,0.19,0.354,0.303,0.587,0.303h2.342L16.457,26.777z"/>
</svg>
