<?xml version="1.0" encoding="utf-8"?>
<!-- Generator: Adobe Illustrator 16.0.4, SVG Export Plug-In . SVG Version: 6.00 Build 0)  -->
<!DOCTYPE svg PUBLIC "-//W3C//DTD SVG 1.1//EN" "http://www.w3.org/Graphics/SVG/1.1/DTD/svg11.dtd">
<svg version="1.1" id="Layer_1" xmlns="http://www.w3.org/2000/svg" xmlns:xlink="http://www.w3.org/1999/xlink" x="0px" y="0px"
	 width="39.69px" height="39.69px" viewBox="0 0 39.69 39.69" enable-background="new 0 0 39.69 39.69" xml:space="preserve">
<circle fill="#FFACFF" cx="19.812" cy="19.845" r="19.843"/>
<path fill="#4A3A87" d="M30.348,9.688c0-0.007-0.002-0.013-0.002-0.017c-0.001-0.021-0.005-0.039-0.01-0.059
	c-0.002,0-0.002-0.002-0.002-0.004c-0.004-0.02-0.01-0.04-0.018-0.06c-0.002-0.005-0.004-0.008-0.006-0.012
	c-0.006-0.018-0.014-0.034-0.022-0.052c-0.001-0.002-0.003-0.004-0.004-0.006c-0.011-0.019-0.022-0.036-0.035-0.055
	c-0.003-0.004-0.006-0.006-0.008-0.01c-0.011-0.014-0.022-0.026-0.034-0.038c-0.004-0.005-0.01-0.01-0.013-0.013
	s-0.006-0.007-0.009-0.009c-0.014-0.012-0.026-0.022-0.041-0.033l0,0c0,0,0,0-0.002-0.002c-0.016-0.013-0.035-0.022-0.053-0.032
	c-0.006-0.002-0.01-0.004-0.014-0.008c-0.018-0.009-0.035-0.018-0.055-0.024c-0.002,0-0.002,0-0.004-0.002
	c-0.02-0.007-0.04-0.012-0.061-0.018c-0.006,0-0.01-0.001-0.015-0.002c-0.017-0.003-0.034-0.005-0.053-0.007
	c-0.004,0-0.007-0.001-0.011-0.001c-0.02-0.001-0.042-0.001-0.062,0c-0.004,0-0.01,0.001-0.012,0.001
	c-0.02,0.002-0.035,0.004-0.055,0.007c-0.003,0.002-0.008,0.002-0.012,0.004c-0.021,0.004-0.041,0.01-0.061,0.018
	c-0.002,0-0.006,0.003-0.008,0.003c-0.02,0.007-0.037,0.016-0.054,0.023c-0.002,0.002-0.005,0.002-0.007,0.004L6.636,21.717
	C6.462,21.812,6.36,22,6.376,22.197c0.018,0.199,0.15,0.369,0.339,0.432l8.731,2.932l0.276,6.012
	c0.011,0.215,0.156,0.398,0.363,0.457c0.046,0.014,0.092,0.018,0.136,0.018c0.163,0,0.318-0.078,0.413-0.217l3.239-4.785
	l6.207,2.084c0.052,0.018,0.105,0.027,0.159,0.027c0.089,0,0.175-0.023,0.251-0.068c0.125-0.074,0.211-0.197,0.238-0.338
	l3.612-18.93c0-0.002,0-0.004,0.002-0.006c0.003-0.021,0.005-0.042,0.007-0.063c0-0.002,0-0.003,0-0.003
	C30.35,9.726,30.35,9.707,30.348,9.688L30.348,9.688z M15.684,24.586l-7.56-2.539L27.512,11.56L15.684,24.586z M16.652,30.023
	l-0.189-4.121l2.428,0.814L16.652,30.023z M25.855,28l-9.137-3.066l12.309-13.557L25.855,28z"/>
</svg>
