<?xml version="1.0" encoding="utf-8"?>
<!-- Generator: Adobe Illustrator 16.0.4, SVG Export Plug-In . SVG Version: 6.00 Build 0)  -->
<!DOCTYPE svg PUBLIC "-//W3C//DTD SVG 1.1//EN" "http://www.w3.org/Graphics/SVG/1.1/DTD/svg11.dtd">
<svg version="1.1" id="Layer_1" xmlns="http://www.w3.org/2000/svg" xmlns:xlink="http://www.w3.org/1999/xlink" x="0px" y="0px"
	 width="39.69px" height="39.69px" viewBox="0 0 39.69 39.69" enable-background="new 0 0 39.69 39.69" xml:space="preserve">
<circle fill="#FFACFF" cx="19.812" cy="19.845" r="19.843"/>
<circle fill="none" stroke="#4A3A87" stroke-width="0.9921" stroke-miterlimit="10" cx="21.99" cy="23.758" r="8.34"/>
<path fill="none" stroke="#4A3A87" stroke-width="0.9921" stroke-miterlimit="10" d="M13.621,23.619
	c-3.704,0.753-7.317-1.638-8.071-5.341c-0.754-3.705,1.638-7.318,5.341-8.072c3.705-0.754,7.319,1.638,8.073,5.342"/>
<path fill="none" stroke="#4A3A87" stroke-width="0.9921" stroke-miterlimit="10" d="M21.092,15.646
	c-1.385-2.729-0.297-6.064,2.432-7.451c2.73-1.387,6.066-0.298,7.452,2.431c1.386,2.73,0.298,6.067-2.431,7.453"/>
<path fill="none" stroke="#4A3A87" stroke-width="0.9921" stroke-linecap="round" stroke-linejoin="round" stroke-miterlimit="10" d="
	M24.23,21.419c-0.575-0.6-1.386-0.973-2.283-0.973c-1.746,0-3.162,1.415-3.162,3.162c0,1.746,1.416,3.163,3.162,3.163
	c1.192,0,2.229-0.659,2.77-1.633"/>
<line fill="none" stroke="#4A3A87" stroke-width="0.9921" stroke-linecap="round" stroke-linejoin="round" stroke-miterlimit="10" x1="17.824" y1="22.87" x2="21.922" y2="22.87"/>
<line fill="none" stroke="#4A3A87" stroke-width="0.9921" stroke-linecap="round" stroke-linejoin="round" stroke-miterlimit="10" x1="17.824" y1="24.568" x2="21.751" y2="24.568"/>
<g>
	<path fill="#4A3A87" d="M12.667,13.311c1.24,0,1.969,0.512,2.343,1.516c0.069,0.177,0.02,0.266-0.167,0.325l-0.404,0.146
		c-0.187,0.069-0.246,0.021-0.334-0.166c-0.285-0.68-0.699-0.936-1.397-0.936c-0.836,0-1.24,0.502-1.24,1.122v1.388h2.362
		c0.197,0,0.256,0.068,0.256,0.256v0.314c0,0.188-0.059,0.256-0.256,0.256h-2.362v1.033c0,0.482-0.167,0.817-0.492,1.044v0.039
		c0.305-0.029,0.788-0.089,1.388-0.089h2.353c0.197,0,0.256,0.069,0.256,0.256v0.375c0,0.187-0.059,0.256-0.256,0.256H9.823
		c-0.197,0-0.246-0.069-0.246-0.256v-0.385c0-0.117,0.04-0.206,0.148-0.206h0.118c0.482-0.089,0.64-0.532,0.64-1.024v-1.043H9.892
		c-0.187,0-0.256-0.068-0.256-0.256v-0.314c0-0.188,0.069-0.256,0.256-0.256h0.591v-1.428
		C10.482,14.226,11.201,13.311,12.667,13.311z"/>
</g>
<g>
	<path fill="#4A3A87" d="M26.486,10.281v0.357c0.693,0.103,1.072,0.453,1.342,1.015c0.088,0.175,0.051,0.27-0.146,0.357l-0.357,0.16
		c-0.168,0.073-0.248,0.051-0.343-0.132c-0.183-0.35-0.408-0.562-0.934-0.562c-0.62,0-0.904,0.176-0.904,0.599
		c0,0.43,0.48,0.511,1.028,0.568c0.81,0.081,1.786,0.219,1.786,1.444c0,0.788-0.518,1.335-1.473,1.474v0.379
		c0,0.168-0.051,0.227-0.219,0.227h-0.401c-0.167,0-0.226-0.059-0.226-0.227v-0.372c-0.752-0.095-1.232-0.51-1.459-1.123
		c-0.066-0.175-0.015-0.27,0.168-0.335l0.357-0.132c0.182-0.065,0.262-0.029,0.342,0.16c0.154,0.395,0.453,0.613,0.985,0.613
		c0.656,0,1.007-0.189,1.007-0.642c0-0.46-0.475-0.54-1.036-0.591c-0.817-0.088-1.794-0.271-1.794-1.444
		c0-0.773,0.474-1.313,1.43-1.438v-0.357c0-0.167,0.059-0.226,0.226-0.226h0.401C26.436,10.056,26.486,10.114,26.486,10.281z"/>
</g>
</svg>
