<?xml version="1.0" encoding="utf-8"?>
<!-- Generator: Adobe Illustrator 16.0.4, SVG Export Plug-In . SVG Version: 6.00 Build 0)  -->
<!DOCTYPE svg PUBLIC "-//W3C//DTD SVG 1.1//EN" "http://www.w3.org/Graphics/SVG/1.1/DTD/svg11.dtd">
<svg version="1.1" id="Layer_1" xmlns="http://www.w3.org/2000/svg" xmlns:xlink="http://www.w3.org/1999/xlink" x="0px" y="0px"
	 width="39.69px" height="39.69px" viewBox="0 0 39.69 39.69" enable-background="new 0 0 39.69 39.69" xml:space="preserve">
<circle fill="#FFACFF" cx="19.845" cy="19.845" r="19.843"/>
<g>
	
		<path fill="none" stroke="#4A3A87" stroke-width="0.9921" stroke-linecap="round" stroke-linejoin="round" stroke-miterlimit="10" d="
		M13.633,21.245v7.236c0,0.794-0.643,1.437-1.436,1.437l0,0c-0.792,0-1.436-0.643-1.436-1.437v-7.358"/>
	
		<path fill="none" stroke="#4A3A87" stroke-width="0.9921" stroke-linecap="round" stroke-linejoin="round" stroke-miterlimit="10" d="
		M10.762,16.22v-4.078c0-0.794,0.643-1.436,1.436-1.436l0,0c0.793,0,1.436,0.642,1.436,1.436v3.955"/>
	
		<path fill="none" stroke="#4A3A87" stroke-width="0.9921" stroke-linecap="round" stroke-linejoin="round" stroke-miterlimit="10" d="
		M21.633,26.236v2.245c0,0.794-0.643,1.437-1.436,1.437l0,0c-0.793,0-1.436-0.643-1.436-1.437v-2.246"/>
	
		<path fill="none" stroke="#4A3A87" stroke-width="0.9921" stroke-linecap="round" stroke-linejoin="round" stroke-miterlimit="10" d="
		M18.761,21.382v-9.24c0-0.794,0.642-1.436,1.436-1.436l0,0c0.793,0,1.436,0.642,1.436,1.436v8.895"/>
	
		<circle fill="none" stroke="#4A3A87" stroke-width="0.9921" stroke-linecap="round" stroke-linejoin="round" stroke-miterlimit="10" cx="12.303" cy="18.671" r="2.897"/>
	
		<circle fill="none" stroke="#4A3A87" stroke-width="0.9921" stroke-linecap="round" stroke-linejoin="round" stroke-miterlimit="10" cx="20.197" cy="23.761" r="2.782"/>
	
		<circle fill="none" stroke="#4A3A87" stroke-width="0.9921" stroke-linecap="round" stroke-linejoin="round" stroke-miterlimit="10" cx="28.197" cy="15.773" r="2.897"/>
	<g>
		
			<path fill="none" stroke="#4A3A87" stroke-width="0.9921" stroke-linecap="round" stroke-linejoin="round" stroke-miterlimit="10" d="
			M29.632,13.108v-0.174v-0.793c0-0.794-0.643-1.436-1.436-1.436s-1.437,0.642-1.437,1.436v1.118v-0.151"/>
		
			<path fill="none" stroke="#4A3A87" stroke-width="0.9921" stroke-linecap="round" stroke-linejoin="round" stroke-miterlimit="10" d="
			M26.76,18.429v10.053c0,0.794,0.644,1.437,1.437,1.437s1.436-0.643,1.436-1.437V18.429"/>
	</g>
</g>
</svg>
