<?xml version="1.0" encoding="utf-8"?>
<!-- Generator: Adobe Illustrator 16.0.4, SVG Export Plug-In . SVG Version: 6.00 Build 0)  -->
<!DOCTYPE svg PUBLIC "-//W3C//DTD SVG 1.1//EN" "http://www.w3.org/Graphics/SVG/1.1/DTD/svg11.dtd">
<svg version="1.1" id="Layer_1" xmlns="http://www.w3.org/2000/svg" xmlns:xlink="http://www.w3.org/1999/xlink" x="0px" y="0px"
	 width="39.69px" height="39.69px" viewBox="0 0 39.69 39.69" enable-background="new 0 0 39.69 39.69" xml:space="preserve">
<g>
	<circle fill="#FFACFF" cx="19.845" cy="19.845" r="19.843"/>
	<g>
		<path fill="#4E4694" d="M27.044,12.646c-1.92-1.924-4.48-2.984-7.199-2.984s-5.279,1.06-7.199,2.984
			c-1.921,1.925-2.985,4.481-2.985,7.2c0,2.719,1.06,5.28,2.985,7.2c1.924,1.92,4.48,2.984,7.199,2.984s5.279-1.061,7.199-2.984
			c1.921-1.924,2.984-4.48,2.984-7.2C30.028,17.127,28.969,14.566,27.044,12.646z M29.106,19.388h-3.949
			c-0.037-1.572-0.258-3.084-0.645-4.427c0.752-0.386,1.455-0.873,2.1-1.447C28.067,15.069,28.994,17.123,29.106,19.388z
			 M20.302,20.302h3.944c-0.032,1.448-0.231,2.831-0.577,4.069c-1.064-0.428-2.199-0.676-3.367-0.73V20.302z M25.956,12.878
			c-0.533,0.47-1.115,0.869-1.73,1.201c-0.158-0.44-0.336-0.856-0.536-1.247c-0.395-0.782-0.844-1.422-1.339-1.913
			C23.702,11.299,24.929,11.976,25.956,12.878z M20.302,10.717c0.952,0.212,1.851,1.089,2.573,2.519
			c0.195,0.387,0.37,0.798,0.524,1.234c-0.977,0.403-2.021,0.641-3.098,0.695V10.717z M23.673,15.348
			c0.342,1.23,0.537,2.606,0.569,4.045h-3.94v-3.309C21.475,16.029,22.608,15.776,23.673,15.348z M19.388,19.388h-3.945
			c0.033-1.439,0.229-2.814,0.569-4.044c1.065,0.432,2.204,0.681,3.372,0.731v3.313H19.388z M19.392,10.717v4.448
			c-1.077-0.054-2.125-0.292-3.098-0.695c0.154-0.436,0.329-0.848,0.524-1.234C17.542,11.806,18.439,10.929,19.392,10.717z
			 M17.342,10.92c-0.495,0.491-0.943,1.135-1.338,1.913c-0.195,0.391-0.374,0.806-0.536,1.247c-0.615-0.332-1.193-0.731-1.729-1.201
			C14.765,11.976,15.992,11.299,17.342,10.92z M13.082,13.514c0.645,0.574,1.347,1.056,2.099,1.447
			c-0.387,1.347-0.611,2.855-0.645,4.427h-3.949C10.7,17.123,11.627,15.069,13.082,13.514z M10.587,20.302h3.949
			c0.038,1.584,0.263,3.102,0.653,4.452c-0.748,0.387-1.451,0.865-2.091,1.439C11.631,24.635,10.7,22.576,10.587,20.302z
			 M13.755,26.83c0.532-0.467,1.11-0.865,1.72-1.193c0.158,0.428,0.333,0.838,0.528,1.221c0.395,0.783,0.844,1.422,1.338,1.918
			C16,28.396,14.778,27.723,13.755,26.83z M19.392,28.975c-0.953-0.213-1.85-1.09-2.573-2.52c-0.191-0.379-0.362-0.781-0.516-1.211
			c0.973-0.402,2.016-0.639,3.089-0.689V28.975z M16.024,24.371c-0.345-1.238-0.544-2.621-0.578-4.069h3.945v3.338
			C18.224,23.691,17.089,23.939,16.024,24.371z M20.306,28.975v-4.42c1.073,0.055,2.117,0.287,3.089,0.689
			c-0.154,0.43-0.325,0.832-0.516,1.211C22.156,27.885,21.258,28.762,20.306,28.975z M22.354,28.77
			c0.496-0.49,0.944-1.135,1.339-1.916c0.196-0.383,0.37-0.793,0.528-1.223c0.611,0.33,1.189,0.729,1.721,1.193
			C24.92,27.723,23.698,28.396,22.354,28.77L22.354,28.77z M26.604,26.193c-0.64-0.57-1.343-1.053-2.091-1.439
			c0.391-1.35,0.615-2.871,0.652-4.452h3.949C28.998,22.576,28.067,24.635,26.604,26.193z"/>
	</g>
	<circle fill="#FFACFF" cx="19.845" cy="19.845" r="19.843"/>
	<g>
		<path fill="#4E4694" d="M27.044,12.646c-1.92-1.924-4.48-2.984-7.199-2.984s-5.279,1.06-7.199,2.984
			c-1.921,1.925-2.985,4.481-2.985,7.2c0,2.719,1.06,5.28,2.985,7.2c1.924,1.92,4.48,2.984,7.199,2.984s5.279-1.061,7.199-2.984
			c1.921-1.924,2.984-4.48,2.984-7.2C30.028,17.127,28.969,14.566,27.044,12.646z M29.106,19.388h-3.949
			c-0.037-1.572-0.258-3.084-0.645-4.427c0.752-0.386,1.455-0.873,2.1-1.447C28.067,15.069,28.994,17.123,29.106,19.388z
			 M20.302,20.302h3.944c-0.032,1.448-0.231,2.831-0.577,4.069c-1.064-0.428-2.199-0.676-3.367-0.73V20.302z M25.956,12.878
			c-0.533,0.47-1.115,0.869-1.73,1.201c-0.158-0.44-0.336-0.856-0.536-1.247c-0.395-0.782-0.844-1.422-1.339-1.913
			C23.702,11.299,24.929,11.976,25.956,12.878z M20.302,10.717c0.952,0.212,1.851,1.089,2.573,2.519
			c0.195,0.387,0.37,0.798,0.524,1.234c-0.977,0.403-2.021,0.641-3.098,0.695V10.717z M23.673,15.348
			c0.342,1.23,0.537,2.606,0.569,4.045h-3.94v-3.309C21.475,16.029,22.608,15.776,23.673,15.348z M19.388,19.388h-3.945
			c0.033-1.439,0.229-2.814,0.569-4.044c1.065,0.432,2.204,0.681,3.372,0.731v3.313H19.388z M19.392,10.717v4.448
			c-1.077-0.054-2.125-0.292-3.098-0.695c0.154-0.436,0.329-0.848,0.524-1.234C17.542,11.806,18.439,10.929,19.392,10.717z
			 M17.342,10.92c-0.495,0.491-0.943,1.135-1.338,1.913c-0.195,0.391-0.374,0.806-0.536,1.247c-0.615-0.332-1.193-0.731-1.729-1.201
			C14.765,11.976,15.992,11.299,17.342,10.92z M13.082,13.514c0.645,0.574,1.347,1.056,2.099,1.447
			c-0.387,1.347-0.611,2.855-0.645,4.427h-3.949C10.7,17.123,11.627,15.069,13.082,13.514z M10.587,20.302h3.949
			c0.038,1.584,0.263,3.102,0.653,4.452c-0.748,0.387-1.451,0.865-2.091,1.439C11.631,24.635,10.7,22.576,10.587,20.302z
			 M13.755,26.83c0.532-0.467,1.11-0.865,1.72-1.193c0.158,0.428,0.333,0.838,0.528,1.221c0.395,0.783,0.844,1.422,1.338,1.918
			C16,28.396,14.778,27.723,13.755,26.83z M19.392,28.975c-0.953-0.213-1.85-1.09-2.573-2.52c-0.191-0.379-0.362-0.781-0.516-1.211
			c0.973-0.402,2.016-0.639,3.089-0.689V28.975z M16.024,24.371c-0.345-1.238-0.544-2.621-0.578-4.069h3.945v3.338
			C18.224,23.691,17.089,23.939,16.024,24.371z M20.306,28.975v-4.42c1.073,0.055,2.117,0.287,3.089,0.689
			c-0.154,0.43-0.325,0.832-0.516,1.211C22.156,27.885,21.258,28.762,20.306,28.975z M22.354,28.77
			c0.496-0.49,0.944-1.135,1.339-1.916c0.196-0.383,0.37-0.793,0.528-1.223c0.611,0.33,1.189,0.729,1.721,1.193
			C24.92,27.723,23.698,28.396,22.354,28.77L22.354,28.77z M26.604,26.193c-0.64-0.57-1.343-1.053-2.091-1.439
			c0.391-1.35,0.615-2.871,0.652-4.452h3.949C28.998,22.576,28.067,24.635,26.604,26.193z"/>
	</g>
</g>
</svg>
