<?xml version="1.0" encoding="utf-8"?>
<!-- Generator: Adobe Illustrator 16.0.4, SVG Export Plug-In . SVG Version: 6.00 Build 0)  -->
<!DOCTYPE svg PUBLIC "-//W3C//DTD SVG 1.1//EN" "http://www.w3.org/Graphics/SVG/1.1/DTD/svg11.dtd">
<svg version="1.1" id="Layer_1" xmlns="http://www.w3.org/2000/svg" xmlns:xlink="http://www.w3.org/1999/xlink" x="0px" y="0px"
	 width="39.69px" height="39.69px" viewBox="0 0 39.69 39.69" enable-background="new 0 0 39.69 39.69" xml:space="preserve">
<circle fill="#FFACFF" cx="20.148" cy="19.845" r="19.843"/>
<g>
	<path fill="#4E4694" d="M28.189,11.804c-1.721-1.72-4.521-1.72-6.241,0l-3.121,3.121c-0.265,0.265-0.265,0.695,0,0.96
		c0.265,0.265,0.695,0.265,0.96,0l3.121-3.12c0.574-0.574,1.342-0.891,2.16-0.891c0.819,0,1.586,0.316,2.16,0.891
		c0.574,0.574,0.891,1.341,0.891,2.161c0,0.819-0.316,1.586-0.891,2.16l-4.08,4.081c-1.191,1.191-3.129,1.191-4.321,0
		c-0.266-0.265-0.695-0.265-0.96,0c-0.265,0.266-0.265,0.695,0,0.961c0.86,0.859,1.991,1.289,3.121,1.289
		c1.13,0,2.26-0.43,3.121-1.289l4.081-4.082c0.83-0.83,1.288-1.939,1.288-3.12C29.478,13.743,29.02,12.635,28.189,11.804z"/>
	<path fill="#4E4694" d="M20.028,24.287l-2.641,2.641c-0.574,0.572-1.341,0.891-2.161,0.891c-0.818,0-1.586-0.318-2.16-0.891
		c-1.191-1.191-1.191-3.131,0-4.322l3.841-3.84c0.574-0.574,1.341-0.89,2.161-0.89c0.818,0,1.586,0.316,2.16,0.89
		c0.266,0.265,0.695,0.265,0.96,0c0.266-0.265,0.266-0.695,0-0.96c-1.72-1.72-4.52-1.72-6.241,0l-3.841,3.841
		c-0.831,0.83-1.288,1.938-1.288,3.121c0,1.18,0.458,2.289,1.289,3.119c0.83,0.832,1.938,1.289,3.12,1.289s2.29-0.457,3.12-1.289
		l2.641-2.641c0.266-0.266,0.266-0.695,0-0.959C20.723,24.021,20.292,24.021,20.028,24.287z"/>
</g>
</svg>
