<?xml version="1.0" encoding="utf-8"?>
<!-- Generator: Adobe Illustrator 16.0.4, SVG Export Plug-In . SVG Version: 6.00 Build 0)  -->
<!DOCTYPE svg PUBLIC "-//W3C//DTD SVG 1.1//EN" "http://www.w3.org/Graphics/SVG/1.1/DTD/svg11.dtd">
<svg version="1.1" id="Layer_1" xmlns="http://www.w3.org/2000/svg" xmlns:xlink="http://www.w3.org/1999/xlink" x="0px" y="0px"
	 width="39.69px" height="39.69px" viewBox="0 0 39.69 39.69" enable-background="new 0 0 39.69 39.69" xml:space="preserve">
<circle fill="#FFACFF" cx="19.845" cy="19.845" r="19.843"/>
<g>
	<g>
		<path fill="#4A3A87" d="M27.602,20.702h-0.968c-0.195,0-0.375,0.103-0.475,0.27c-0.272,0.446-0.74,0.703-1.285,0.703
			c-0.84,0-1.523-0.683-1.523-1.521c0-0.843,0.684-1.527,1.523-1.527c0.506,0,1.002,0.276,1.297,0.719
			c0.103,0.156,0.275,0.249,0.463,0.249h0.968c0.306,0,0.572-0.249,0.572-0.554v-6.487c0-0.306-0.267-0.554-0.572-0.554h-5.969
			v-0.096c0.609-0.508,0.96-1.263,0.96-2.034c0-1.452-1.187-2.633-2.639-2.633c-1.451,0-2.625,1.181-2.625,2.633
			c0,0.817,0.369,1.561,0.978,2.047V12h-5.949c-0.306,0-0.536,0.249-0.536,0.554v5.931h-0.138c-0.508-0.603-1.263-0.966-2.034-0.966
			c-1.452,0-2.633,1.181-2.633,2.635c0,1.449,1.181,2.63,2.633,2.63c0.816,0,1.56-0.358,2.047-0.973h0.125v5.987
			c0,0.306,0.23,0.554,0.536,0.554h6.486c0.306,0,0.573-0.248,0.573-0.554v-0.951c0-0.193-0.111-0.373-0.277-0.474
			c-0.447-0.27-0.708-0.737-0.708-1.283c0-0.841,0.68-1.524,1.521-1.524s1.523,0.684,1.523,1.524c0,0.504-0.268,1.001-0.712,1.296
			c-0.154,0.103-0.239,0.277-0.239,0.461v0.951c0,0.306,0.23,0.554,0.537,0.554h6.541c0.306,0,0.572-0.248,0.572-0.554v-6.541
			C28.174,20.951,27.907,20.702,27.602,20.702z M27.065,27.244h-5.433v-0.119c0.609-0.508,0.96-1.263,0.96-2.034
			c0-1.452-1.187-2.634-2.639-2.634c-1.451,0-2.625,1.182-2.625,2.634c0,0.817,0.369,1.561,0.978,2.047v0.106H12.93v-5.986
			c0-0.307-0.267-0.555-0.573-0.555h-0.949c-0.194,0-0.375,0.102-0.475,0.269c-0.271,0.446-0.738,0.704-1.284,0.704
			c-0.84,0-1.524-0.684-1.524-1.521c0-0.843,0.684-1.527,1.524-1.527c0.505,0,1.002,0.276,1.296,0.719
			c0.103,0.156,0.276,0.249,0.462,0.249h0.949c0.306,0,0.573-0.249,0.573-0.554v-5.932h5.913c0.306,0,0.573-0.249,0.573-0.555
			v-0.926c0-0.194-0.111-0.375-0.277-0.475c-0.447-0.27-0.708-0.737-0.708-1.283c0-0.84,0.68-1.524,1.521-1.524
			s1.523,0.684,1.523,1.524c0,0.504-0.268,1.001-0.712,1.297c-0.154,0.102-0.239,0.275-0.239,0.461v0.926
			c0,0.306,0.23,0.555,0.537,0.555h6.004v5.376h-0.157c-0.509-0.603-1.262-0.967-2.034-0.967c-1.451,0-2.632,1.182-2.632,2.636
			c0,1.449,1.18,2.63,2.632,2.63c0.817,0,1.561-0.358,2.047-0.973h0.144L27.065,27.244L27.065,27.244z"/>
	</g>
</g>
</svg>
