<?xml version="1.0" encoding="utf-8"?>
<!-- Generator: Adobe Illustrator 16.0.4, SVG Export Plug-In . SVG Version: 6.00 Build 0)  -->
<!DOCTYPE svg PUBLIC "-//W3C//DTD SVG 1.1//EN" "http://www.w3.org/Graphics/SVG/1.1/DTD/svg11.dtd">
<svg version="1.1" id="Layer_1" xmlns="http://www.w3.org/2000/svg" xmlns:xlink="http://www.w3.org/1999/xlink" x="0px" y="0px"
	 width="80px" height="80px" viewBox="0 0 80 80" enable-background="new 0 0 80 80" xml:space="preserve">
<g opacity="0.3">
	<path fill="#FFFFFF" d="M64.485,35.062c-0.103,0-0.208-0.016-0.309-0.048c-0.528-0.17-0.825-0.736-0.653-1.266l2.421-7.583
		c0.015-0.048,0.285-0.872-0.154-1.534c-0.025-0.035-0.045-0.07-0.064-0.109c-0.22-0.445-0.93-0.676-1.18-0.676H19.914
		c-0.557,0-1.009-0.45-1.009-1.008c0-0.555,0.452-1.01,1.009-1.01h44.632c0.799,0,2.29,0.474,2.954,1.738
		c0.698,1.089,0.643,2.375,0.361,3.225l-2.415,7.569C65.306,34.791,64.912,35.062,64.485,35.062z"/>
	<path fill="#FFFFFF" d="M52.484,46.119H27.183c-0.557,0-1.007-0.451-1.007-1.006c0-0.557,0.45-1.01,1.007-1.01h25.301
		c0.555,0,1.002,0.453,1.002,1.01C53.486,45.668,53.039,46.119,52.484,46.119z"/>
	<path fill="#FFFFFF" d="M33.107,51.479"/>
	<path fill="#FFFFFF" d="M28.598,50.33c-0.421,0-0.814-0.264-0.954-0.686l-1.782-5.297l-8.327-24.982
		c-0.202-0.651-0.573-1.365-0.774-1.517c-0.442-0.324-1.402-0.386-1.8-0.37l-5.942,0.004c-0.553,0-1.005-0.451-1.005-1.008
		c0-0.556,0.452-1.005,1.005-1.005h5.887c0.139-0.011,1.915-0.09,3.056,0.761c0.848,0.629,1.356,2.082,1.494,2.507l1.946,5.843
		l-0.93,0.389l0.955-0.318L29.555,49c0.177,0.531-0.109,1.1-0.638,1.278C28.817,50.313,28.71,50.33,28.598,50.33z"/>
	<path fill="#FFFFFF" d="M57.727,52.843H32.881c-0.248-0.01-1.955-0.118-3.106-0.743c-1.345-0.729-1.909-1.84-2.124-2.432
		c-0.188-0.527,0.084-1.105,0.607-1.295c0.52-0.188,1.101,0.082,1.287,0.607c0.123,0.323,0.432,0.938,1.188,1.346
		c0.646,0.348,1.837,0.484,2.205,0.504l24.79-0.004c0.558,0,1.006,0.451,1.006,1.01C58.732,52.393,58.284,52.843,57.727,52.843z"/>
	<path fill="#FFFFFF" d="M36.149,64.361c-2.801,0-5.065-2.273-5.065-5.066c0-2.798,2.265-5.074,5.065-5.074
		c2.794,0,5.072,2.276,5.072,5.074C41.221,62.088,38.943,64.361,36.149,64.361z M36.149,56.24c-1.684,0-3.053,1.367-3.053,3.055
		c0,1.679,1.369,3.049,3.053,3.049c1.682,0,3.054-1.37,3.054-3.049C39.203,57.607,37.831,56.24,36.149,56.24z"/>
	<path fill="#FFFFFF" d="M54.781,64.361c-2.799,0-5.068-2.273-5.068-5.066c0-2.798,2.27-5.074,5.068-5.074
		c2.797,0,5.068,2.276,5.068,5.074C59.85,62.088,57.578,64.361,54.781,64.361z M54.781,56.24c-1.681,0-3.056,1.367-3.056,3.055
		c0,1.679,1.375,3.049,3.056,3.049c1.683,0,3.055-1.37,3.055-3.049C57.836,57.607,56.464,56.24,54.781,56.24z"/>
	<g>
		<path fill="#FFFFFF" d="M52.505,49.525c-0.136,0-0.276-0.031-0.405-0.09c-0.383-0.17-0.624-0.557-0.602-0.971l1.177-22.182
			c0.017-0.371,0.242-0.701,0.579-0.862c0.338-0.151,0.74-0.112,1.037,0.112L72.18,39.088c0.332,0.252,0.475,0.684,0.359,1.091
			c-0.122,0.401-0.48,0.688-0.893,0.718l-8.3,0.615c-0.541,0.036-1.036-0.377-1.077-0.932c-0.047-0.559,0.373-1.042,0.93-1.082
			l5.63-0.414L54.588,28.289L53.651,45.94l3.854-3.863c0.397-0.398,1.033-0.398,1.427-0.004c0.393,0.392,0.397,1.032,0.002,1.427
			l-5.712,5.729C53.026,49.42,52.768,49.525,52.505,49.525z"/>
		<path fill="#FFFFFF" d="M62.855,53.346c-0.378,0-0.736-0.211-0.91-0.568l-4.632-9.55c-0.243-0.5-0.038-1.105,0.465-1.349
			c0.501-0.244,1.108-0.031,1.346,0.469l4.208,8.668l3.214-1.456l-4.183-8.614c-0.244-0.502-0.033-1.105,0.467-1.35
			c0.502-0.24,1.106-0.033,1.35,0.467l4.637,9.552c0.119,0.244,0.132,0.525,0.038,0.78c-0.089,0.258-0.284,0.465-0.531,0.579
			l-5.054,2.284C63.135,53.316,62.99,53.346,62.855,53.346z"/>
	</g>
	<path fill="#FFFFFF" d="M53.097,35.062H39.848c-0.562,0-1.011-0.451-1.011-1.01c0-0.554,0.449-1.007,1.011-1.007h13.249
		c0.555,0,1.005,0.453,1.005,1.007C54.102,34.61,53.651,35.062,53.097,35.062z"/>
	<path fill="#FFFFFF" d="M33.101,35.062h-3.248c-0.553,0-1.005-0.451-1.005-1.01c0-0.554,0.452-1.007,1.005-1.007h3.248
		c0.558,0,1.011,0.453,1.011,1.007C34.112,34.61,33.659,35.062,33.101,35.062z"/>
</g>
</svg>
