<?xml version="1.0" encoding="utf-8"?>
<!-- Generator: Adobe Illustrator 16.0.4, SVG Export Plug-In . SVG Version: 6.00 Build 0)  -->
<!DOCTYPE svg PUBLIC "-//W3C//DTD SVG 1.1//EN" "http://www.w3.org/Graphics/SVG/1.1/DTD/svg11.dtd">
<svg version="1.1" id="Layer_1" xmlns="http://www.w3.org/2000/svg" xmlns:xlink="http://www.w3.org/1999/xlink" x="0px" y="0px"
	 width="80px" height="80px" viewBox="0 0 80 80" enable-background="new 0 0 80 80" xml:space="preserve">
<g opacity="0.3">
	<path fill="#FFFFFF" d="M32.929,64.887c-13.365,0-24.234-10.871-24.234-24.234c0-13.361,10.869-24.233,24.234-24.233
		c8.354,0,16.014,4.222,20.488,11.288c0.277,0.439,0.147,1.019-0.291,1.299c-0.438,0.275-1.019,0.145-1.293-0.293
		C47.701,22.195,40.637,18.3,32.929,18.3c-12.327,0-22.35,10.03-22.35,22.353c0,12.326,10.023,22.355,22.35,22.355
		c7.559,0,14.555-3.781,18.707-10.107c0.285-0.438,0.865-0.561,1.298-0.275c0.437,0.287,0.559,0.869,0.274,1.303
		C48.705,60.791,41.122,64.887,32.929,64.887z"/>
	<path fill="#FFFFFF" d="M32.928,64.887c-7.7,0-13.966-10.871-13.966-24.234c0-13.361,6.266-24.233,13.966-24.233
		c4.91,0,9.358,4.291,11.901,11.478c0.176,0.488-0.084,1.028-0.572,1.199c-0.486,0.174-1.026-0.083-1.196-0.572
		C40.79,22.122,37.004,18.3,32.928,18.3c-6.661,0-12.086,10.03-12.086,22.353c0,12.326,5.425,22.355,12.086,22.355
		c3.997,0,7.74-3.709,10.016-9.92c0.186-0.486,0.723-0.736,1.209-0.559c0.486,0.182,0.74,0.721,0.56,1.209
		C42.15,60.719,37.745,64.887,32.928,64.887z"/>
	<path fill="#FFFFFF" d="M32.048,44.361c0,0-0.004,0-0.009-0.002c-7.705-0.084-15.32-1.084-22.638-2.961
		c-0.505-0.129-0.806-0.642-0.675-1.144c0.128-0.502,0.639-0.81,1.143-0.676c7.172,1.835,14.638,2.818,22.19,2.902
		c0.516,0.008,0.935,0.434,0.929,0.953C32.981,43.947,32.562,44.361,32.048,44.361z"/>
	<path fill="#FFFFFF" d="M32.929,64.844c-0.516,0-0.936-0.422-0.936-0.939V17.36c0-0.518,0.419-0.94,0.936-0.94
		c0.521,0,0.938,0.423,0.938,0.94v46.544C33.867,64.422,33.45,64.844,32.929,64.844z"/>
	<g>
		<path fill="#FFFFFF" d="M66.976,54.352H36.318c-2.384,0-4.325-1.943-4.325-4.332V31.608c0-2.395,1.941-4.336,4.325-4.336h30.657
			c2.389,0,4.33,1.941,4.33,4.336V50.02C71.306,52.408,69.364,54.352,66.976,54.352z M36.318,29.153
			c-1.352,0-2.452,1.102-2.452,2.455V50.02c0,1.354,1.1,2.449,2.452,2.449h30.657c1.352,0,2.452-1.096,2.452-2.449V31.608
			c0-1.354-1.101-2.455-2.452-2.455H36.318z"/>
		<path fill="#FFFFFF" d="M46.178,41.912h-5.94c-0.891,0-1.613-0.725-1.613-1.613v-4.604c0-0.889,0.722-1.613,1.613-1.613h5.94
			c0.887,0,1.612,0.725,1.612,1.613v4.604C47.79,41.188,47.064,41.912,46.178,41.912z M40.503,40.035h5.409v-4.071h-5.409V40.035z"
			/>
		<path fill="#FFFFFF" d="M46.835,48.307h-7.253c-0.519,0-0.94-0.422-0.94-0.941c0-0.518,0.421-0.938,0.94-0.938h7.253
			c0.517,0,0.938,0.42,0.938,0.938C47.772,47.885,47.352,48.307,46.835,48.307z"/>
		<path fill="#FFFFFF" d="M64.463,48.307H52.835c-0.517,0-0.938-0.422-0.938-0.941c0-0.518,0.421-0.938,0.938-0.938h11.628
			c0.521,0,0.939,0.42,0.939,0.938C65.402,47.885,64.983,48.307,64.463,48.307z"/>
	</g>
</g>
</svg>
