<?xml version="1.0" encoding="utf-8"?>
<!-- Generator: Adobe Illustrator 16.0.4, SVG Export Plug-In . SVG Version: 6.00 Build 0)  -->
<!DOCTYPE svg PUBLIC "-//W3C//DTD SVG 1.1//EN" "http://www.w3.org/Graphics/SVG/1.1/DTD/svg11.dtd">
<svg version="1.1" id="Layer_1" xmlns="http://www.w3.org/2000/svg" xmlns:xlink="http://www.w3.org/1999/xlink" x="0px" y="0px"
	 width="80px" height="80px" viewBox="0 0 80 80" enable-background="new 0 0 80 80" xml:space="preserve">
<g opacity="0.3">
	<path fill="#FFFFFF" d="M67.668,49.756H54.6c-0.572,0-1.035-0.462-1.035-1.033c0-0.569,0.463-1.034,1.035-1.034h13.068
		c1.755,0,3.18-1.423,3.18-3.179V21.648c0-1.756-1.425-3.183-3.18-3.183h-38.06c-1.75,0-3.176,1.427-3.176,3.183v10.587
		c0,0.57-0.462,1.032-1.033,1.032c-0.57,0-1.032-0.462-1.032-1.032V21.648c0-2.893,2.35-5.249,5.241-5.249h38.06
		c2.893,0,5.248,2.356,5.248,5.249V44.51C72.916,47.403,70.561,49.756,67.668,49.756z"/>
	<g>
		<path fill="#FFFFFF" d="M50.386,64.557H12.324c-2.887,0-5.239-2.352-5.239-5.242V36.449c0-2.896,2.352-5.248,5.239-5.248h38.062
			c2.892,0,5.247,2.352,5.247,5.248v22.865C55.633,62.205,53.277,64.557,50.386,64.557z M12.324,33.268
			c-1.747,0-3.177,1.426-3.177,3.182v22.865c0,1.752,1.43,3.176,3.177,3.176h38.062c1.755,0,3.179-1.424,3.179-3.176V36.449
			c0-1.756-1.424-3.182-3.179-3.182H12.324z"/>
		<path fill="#FFFFFF" d="M24.564,49.112h-7.376c-1.029,0-1.867-0.842-1.867-1.87v-5.715c0-1.032,0.837-1.868,1.867-1.868h7.376
			c1.026,0,1.868,0.836,1.868,1.868v5.715C26.433,48.271,25.591,49.112,24.564,49.112z M17.389,47.043h6.979v-5.316h-6.979V47.043z"
			/>
		<path fill="#FFFFFF" d="M25.381,57.053H16.37c-0.566,0-1.028-0.465-1.028-1.033c0-0.574,0.462-1.035,1.028-1.035h9.011
			c0.57,0,1.032,0.461,1.032,1.035C26.413,56.588,25.951,57.053,25.381,57.053z"/>
		<path fill="#FFFFFF" d="M47.27,57.053H32.832c-0.57,0-1.037-0.465-1.037-1.033c0-0.574,0.467-1.035,1.037-1.035H47.27
			c0.568,0,1.033,0.461,1.033,1.035C48.303,56.588,47.838,57.053,47.27,57.053z"/>
	</g>
	<path fill="#FFFFFF" d="M71.471,33.268H60.045c-0.572,0-1.034-0.462-1.034-1.032c0-0.571,0.462-1.034,1.034-1.034h11.426
		c0.574,0,1.035,0.463,1.035,1.034C72.506,32.806,72.045,33.268,71.471,33.268z"/>
	<path fill="#FFFFFF" d="M71.471,26.719H25.817c-0.57,0-1.033-0.465-1.033-1.035s0.462-1.035,1.033-1.035h45.653
		c0.574,0,1.035,0.465,1.035,1.035S72.045,26.719,71.471,26.719z"/>
	<path fill="#FFFFFF" d="M18.062,26.363H8.116c-0.569,0-1.031-0.465-1.031-1.036c0-0.569,0.462-1.032,1.031-1.032h9.945
		c0.572,0,1.033,0.463,1.033,1.032C19.094,25.898,18.633,26.363,18.062,26.363z"/>
	<path fill="#FFFFFF" d="M71.471,57.053h-8.651c-0.569,0-1.032-0.465-1.032-1.033c0-0.574,0.463-1.035,1.032-1.035h8.651
		c0.574,0,1.035,0.461,1.035,1.035C72.506,56.588,72.045,57.053,71.471,57.053z"/>
</g>
</svg>
